//Event file generated from Sappy .s format.
        #include "MPlayDef.event"

        #define    FNO_grp  voicegroup000
        #define    FNO_pri  0
        #define    FNO_rev  0
        #define    FNO_key  0

        // .rodata
        // FNO
        ALIGN 4

//****************** Track 0 (Midi-Chn.1) ******************//

FNO_0:
        BYTE   KEYSH   FNO_key+0
// 000   ----------------------------------------
        BYTE   TEMPO   132/2
FNO_0_LOOP:
        BYTE           VOL     38
        BYTE           PAN     c_v-1
        BYTE           VOICE   59
        BYTE           BENDR   12
        BYTE           VOICE   34
        BYTE   W96
// 001   ----------------------------------------
        BYTE   W96
// 002   ----------------------------------------
        BYTE   W96
// 003   ----------------------------------------
        BYTE   W96
// 004   ----------------------------------------
        BYTE   W96
// 005   ----------------------------------------
        BYTE   W96
// 006   ----------------------------------------
        BYTE   W96
// 007   ----------------------------------------
        BYTE   W96
// 008   ----------------------------------------
FNO_0_8:
        BYTE           N17     As2   v080
        BYTE   W18
        BYTE           N05
        BYTE   W24
        BYTE           N17
        BYTE   W18
        BYTE           N11
        BYTE   W12
        BYTE           N17     Gs2
        BYTE   W18
        BYTE           N05     As2
        BYTE   W06
        BYTE   PEND
// 009   ----------------------------------------
FNO_0_9:
        BYTE   W12
        BYTE           N05     Ds3   v080
        BYTE   W06
        BYTE                   As2
        BYTE   W24
        BYTE           N17
        BYTE   W18
        BYTE           N11
        BYTE   W12
        BYTE           N23     Gs2
        BYTE   W24
        BYTE   PEND
// 010   ----------------------------------------
FNO_0_10:
        BYTE           N17     As2   v080
        BYTE   W18
        BYTE           N05
        BYTE   W24
        BYTE           N17
        BYTE   W18
        BYTE           N11
        BYTE   W12
        BYTE           N17     Gs2
        BYTE   W18
        BYTE                   Fs2
        BYTE   W06
        BYTE   PEND
// 011   ----------------------------------------
FNO_0_11:
        BYTE   W12
        BYTE           N11     Fs2   v080
        BYTE   W30
        BYTE           N17
        BYTE   W18
        BYTE           N11
        BYTE   W12
        BYTE           N23     Gs2
        BYTE   W24
        BYTE   PEND
// 012   ----------------------------------------
        BYTE   PATT
         POIN2  FNO_0_8
// 013   ----------------------------------------
        BYTE   PATT
         POIN2  FNO_0_9
// 014   ----------------------------------------
        BYTE   PATT
         POIN2  FNO_0_10
// 015   ----------------------------------------
        BYTE   PATT
         POIN2  FNO_0_11
// 016   ----------------------------------------
FNO_0_16:
        BYTE           N11     Ds2   v080
        BYTE   W12
        BYTE           N05     As2
        BYTE   W06
        BYTE                   Cs3
        BYTE   W06
        BYTE                   Ds3
        BYTE   W06
        BYTE                   As2
        BYTE   W06
        BYTE                   Fs2
        BYTE   W06
        BYTE                   Ds2
        BYTE   W06
        BYTE                   As2
        BYTE   W06
        BYTE                   Fs2
        BYTE   W06
        BYTE                   Ds2
        BYTE   W06
        BYTE                   Fs2
        BYTE   W06
        BYTE                   As2
        BYTE   W06
        BYTE                   Cs3
        BYTE   W06
        BYTE                   Fs2
        BYTE   W06
        BYTE                   Ds3
        BYTE   W06
        BYTE   PEND
// 017   ----------------------------------------
        BYTE           N11     Fs2
        BYTE   W12
        BYTE           N05     As2
        BYTE   W06
        BYTE                   Ds2
        BYTE   W24
        BYTE           N17     Fs2
        BYTE   W18
        BYTE           N11
        BYTE   W12
        BYTE           N23     Gs2
        BYTE   W24
// 018   ----------------------------------------
        BYTE   PATT
         POIN2  FNO_0_16
// 019   ----------------------------------------
        BYTE           N11     Fs2   v080
        BYTE   W12
        BYTE           N05     As2
        BYTE   W06
        BYTE                   Ds2
        BYTE   W78
// 020   ----------------------------------------
FNO_0_20:
        BYTE           N11     As2   v080
        BYTE   W12
        BYTE                   As2
        BYTE   W30
        BYTE           N17
        BYTE   W18
        BYTE           N11
        BYTE   W12
        BYTE           N17     Gs2
        BYTE   W18
        BYTE           N05     As2
        BYTE   W06
        BYTE   PEND
// 021   ----------------------------------------
FNO_0_21:
        BYTE   W12
        BYTE           N11     As2   v080
        BYTE   W30
        BYTE           N17
        BYTE   W18
        BYTE           N11
        BYTE   W12
        BYTE           N23     Gs2
        BYTE   W24
        BYTE   PEND
// 022   ----------------------------------------
        BYTE   PATT
         POIN2  FNO_0_20
// 023   ----------------------------------------
        BYTE   PATT
         POIN2  FNO_0_21
// 024   ----------------------------------------
FNO_0_24:
        BYTE           N11     Fs2   v080
        BYTE   W12
        BYTE                   Fs2
        BYTE   W30
        BYTE           N17
        BYTE   W18
        BYTE           N11
        BYTE   W12
        BYTE           N23     Gs2
        BYTE   W24
        BYTE   PEND
// 025   ----------------------------------------
FNO_0_25:
        BYTE           N11     Gs2   v080
        BYTE   W12
        BYTE                   Gs2
        BYTE   W30
        BYTE           N17
        BYTE   W18
        BYTE           N11
        BYTE   W12
        BYTE           N05
        BYTE   W06
        BYTE                   As2
        BYTE   W06
        BYTE           N11     Gs2
        BYTE   W12
        BYTE   PEND
// 026   ----------------------------------------
FNO_0_26:
        BYTE           N11     As2   v080
        BYTE   W12
        BYTE                   As2
        BYTE   W30
        BYTE           N17
        BYTE   W18
        BYTE           N11
        BYTE   W12
        BYTE           N05
        BYTE   W06
        BYTE                   Gs2
        BYTE   W12
        BYTE                   Fs2
        BYTE   W06
        BYTE   PEND
// 027   ----------------------------------------
        BYTE   PATT
         POIN2  FNO_0_11
// 028   ----------------------------------------
        BYTE   PATT
         POIN2  FNO_0_20
// 029   ----------------------------------------
        BYTE   PATT
         POIN2  FNO_0_21
// 030   ----------------------------------------
        BYTE   PATT
         POIN2  FNO_0_20
// 031   ----------------------------------------
        BYTE   PATT
         POIN2  FNO_0_21
// 032   ----------------------------------------
        BYTE   PATT
         POIN2  FNO_0_24
// 033   ----------------------------------------
        BYTE   PATT
         POIN2  FNO_0_25
// 034   ----------------------------------------
        BYTE   PATT
         POIN2  FNO_0_26
// 035   ----------------------------------------
        BYTE   PATT
         POIN2  FNO_0_11
// 036   ----------------------------------------
FNO_0_36:
        BYTE           N11     Ds2   v120
        BYTE   W12
        BYTE                   Ds3
        BYTE   W30
        BYTE           N17     Ds2
        BYTE   W18
        BYTE           N11
        BYTE   W12
        BYTE           N05     As2
        BYTE   W06
        BYTE                   Ds2
        BYTE   W12
        BYTE           N17     Gs2
        BYTE   W06
        BYTE   PEND
// 037   ----------------------------------------
FNO_0_37:
        BYTE   W12
        BYTE           N11     Cs3   v120
        BYTE   W30
        BYTE           N17     Fs2
        BYTE   W18
        BYTE           N11
        BYTE   W12
        BYTE           N05
        BYTE   W06
        BYTE                   Gs2
        BYTE   W18
        BYTE   PEND
// 038   ----------------------------------------
FNO_0_38:
        BYTE           N11     Ds2   v120
        BYTE   W12
        BYTE                   Ds2
        BYTE   W30
        BYTE           N17
        BYTE   W18
        BYTE           N11
        BYTE   W12
        BYTE           N05     As2
        BYTE   W06
        BYTE                   Ds2
        BYTE   W12
        BYTE           N17     Gs2
        BYTE   W06
        BYTE   PEND
// 039   ----------------------------------------
FNO_0_39:
        BYTE   W12
        BYTE           N11     Gs2   v120
        BYTE   W30
        BYTE           N17     An2
        BYTE   W18
        BYTE           N11
        BYTE   W12
        BYTE           N23     Ds3
        BYTE   W24
        BYTE   PEND
// 040   ----------------------------------------
FNO_0_40:
        BYTE           N11     Ds2   v120
        BYTE   W12
        BYTE                   Ds2
        BYTE   W30
        BYTE           N17
        BYTE   W18
        BYTE           N11
        BYTE   W12
        BYTE           N05     Fs2
        BYTE   W06
        BYTE                   Ds2
        BYTE   W12
        BYTE           N17     Fn2
        BYTE   W06
        BYTE   PEND
// 041   ----------------------------------------
FNO_0_41:
        BYTE   W12
        BYTE           N11     Cs3   v120
        BYTE   W12
        BYTE                   Ds3
        BYTE   W18
        BYTE           N17     Fs2
        BYTE   W18
        BYTE           N11
        BYTE   W12
        BYTE           N05     As2
        BYTE   W06
        BYTE                   Gs2
        BYTE   W18
        BYTE   PEND
// 042   ----------------------------------------
FNO_0_42:
        BYTE           N11     Ds2   v120
        BYTE   W12
        BYTE                   Ds2
        BYTE   W12
        BYTE                   As2
        BYTE   W12
        BYTE           N05     Cs3
        BYTE   W06
        BYTE           N17     Ds2
        BYTE   W18
        BYTE           N11
        BYTE   W12
        BYTE           N05     As2
        BYTE   W06
        BYTE                   Ds2
        BYTE   W12
        BYTE           N17     Gs2
        BYTE   W06
        BYTE   PEND
// 043   ----------------------------------------
        BYTE   PATT
         POIN2  FNO_0_39
// 044   ----------------------------------------
        BYTE   PATT
         POIN2  FNO_0_36
// 045   ----------------------------------------
        BYTE   PATT
         POIN2  FNO_0_37
// 046   ----------------------------------------
        BYTE   PATT
         POIN2  FNO_0_38
// 047   ----------------------------------------
        BYTE   PATT
         POIN2  FNO_0_39
// 048   ----------------------------------------
        BYTE   PATT
         POIN2  FNO_0_40
// 049   ----------------------------------------
        BYTE   PATT
         POIN2  FNO_0_41
// 050   ----------------------------------------
        BYTE   PATT
         POIN2  FNO_0_42
// 051   ----------------------------------------
        BYTE   PATT
         POIN2  FNO_0_39
// 052   ----------------------------------------
        BYTE           N32     As2   v120   gtp3
        BYTE   W36
        BYTE           N56     Gs2   v120   gtp3
        BYTE   W60
// 053   ----------------------------------------
        BYTE           N32     Fs2   v120   gtp3
        BYTE   W36
        BYTE           N56     Gs2   v120   gtp3
        BYTE   W60
// 054   ----------------------------------------
FNO_0_54:
        BYTE           N05     As2   v120
        BYTE   W12
        BYTE                   As2
        BYTE   W12
        BYTE                   As2
        BYTE   W12
        BYTE                   Gs2
        BYTE   W12
        BYTE                   Gs2
        BYTE   W12
        BYTE                   Gs2
        BYTE   W12
        BYTE                   Gs2
        BYTE   W12
        BYTE                   Gs2
        BYTE   W12
        BYTE   PEND
// 055   ----------------------------------------
FNO_0_55:
        BYTE           N05     Fs2   v120
        BYTE   W12
        BYTE                   Fs2
        BYTE   W12
        BYTE                   Fs2
        BYTE   W12
        BYTE                   Gs2
        BYTE   W12
        BYTE                   Gs2
        BYTE   W12
        BYTE                   Gs2
        BYTE   W12
        BYTE                   Gs2
        BYTE   W12
        BYTE                   Gs2
        BYTE   W12
        BYTE   PEND
// 056   ----------------------------------------
        BYTE   PATT
         POIN2  FNO_0_54
// 057   ----------------------------------------
        BYTE   PATT
         POIN2  FNO_0_55
// 058   ----------------------------------------
        BYTE   PATT
         POIN2  FNO_0_54
// 059   ----------------------------------------
        BYTE           N44     Fs2   v120   gtp3
        BYTE   W48
        BYTE                   Gs2
        BYTE   W48
// 060   ----------------------------------------
        BYTE   W23
        BYTE   GoTo
         POIN2  FNO_0_LOOP
        BYTE   FINE

//****************** Track 1 (Midi-Chn.2) ******************//

FNO_1:
        BYTE   KEYSH   FNO_key+0
// 000   ----------------------------------------
FNO_1_LOOP:
        BYTE           VOL     51
        BYTE           VOICE   67
        BYTE           BENDR   12
        BYTE   W96
// 001   ----------------------------------------
        BYTE   W96
// 002   ----------------------------------------
        BYTE   W96
// 003   ----------------------------------------
        BYTE   W96
// 004   ----------------------------------------
        BYTE   W96
// 005   ----------------------------------------
        BYTE   W96
// 006   ----------------------------------------
        BYTE   W96
// 007   ----------------------------------------
        BYTE   W96
// 008   ----------------------------------------
        BYTE   W96
// 009   ----------------------------------------
        BYTE   W96
// 010   ----------------------------------------
        BYTE   W96
// 011   ----------------------------------------
        BYTE   W96
// 012   ----------------------------------------
        BYTE   W96
// 013   ----------------------------------------
        BYTE   W96
// 014   ----------------------------------------
        BYTE   W96
// 015   ----------------------------------------
        BYTE   W96
// 016   ----------------------------------------
        BYTE   W96
// 017   ----------------------------------------
        BYTE   W96
// 018   ----------------------------------------
        BYTE   W96
// 019   ----------------------------------------
        BYTE   W96
// 020   ----------------------------------------
        BYTE   W96
// 021   ----------------------------------------
        BYTE   W96
// 022   ----------------------------------------
        BYTE   W96
// 023   ----------------------------------------
        BYTE   W96
// 024   ----------------------------------------
        BYTE   W96
// 025   ----------------------------------------
        BYTE   W96
// 026   ----------------------------------------
        BYTE   W96
// 027   ----------------------------------------
        BYTE   W96
// 028   ----------------------------------------
        BYTE   W96
// 029   ----------------------------------------
        BYTE   W96
// 030   ----------------------------------------
        BYTE   W96
// 031   ----------------------------------------
        BYTE   W96
// 032   ----------------------------------------
        BYTE   W96
// 033   ----------------------------------------
        BYTE   W96
// 034   ----------------------------------------
        BYTE   W96
// 035   ----------------------------------------
        BYTE   W84
        BYTE           N05     Fn3   v096
        BYTE   W06
        BYTE                   Fs3
        BYTE   W06
// 036   ----------------------------------------
FNO_1_36:
        BYTE           N08     Gs3   v096
        BYTE   W18
        BYTE                   Gs3
        BYTE   W18
        BYTE           N44     Gs3   v096   gtp3
        BYTE   W48
        BYTE           N05     Cs3
        BYTE   W06
        BYTE                   Fn3
        BYTE   W06
        BYTE   PEND
// 037   ----------------------------------------
        BYTE           N08     Ds3
        BYTE   W18
        BYTE                   Ds3
        BYTE   W18
        BYTE           N44     Ds3   v096   gtp3
        BYTE   W48
        BYTE           N05     Fn3
        BYTE   W06
        BYTE                   Ds3
        BYTE   W06
// 038   ----------------------------------------
FNO_1_38:
        BYTE           N08     Cs3   v096
        BYTE   W18
        BYTE                   Cs4
        BYTE   W18
        BYTE           N17     Cn4
        BYTE   W18
        BYTE           N08     As3
        BYTE   W06
        BYTE           N11     Fs3
        BYTE   W12
        BYTE                   Gs3
        BYTE   W12
        BYTE                   Fs3
        BYTE   W12
        BYTE   PEND
// 039   ----------------------------------------
FNO_1_39:
        BYTE           N32     Fn3   v096   gtp3
        BYTE   W36
        BYTE           N05     Fs3
        BYTE   W06
        BYTE                   Fn3
        BYTE   W06
        BYTE           N32     Ds3   v096   gtp3
        BYTE   W36
        BYTE           N05     Cs3
        BYTE   W06
        BYTE                   Cn3
        BYTE   W06
        BYTE   PEND
// 040   ----------------------------------------
FNO_1_40:
        BYTE           N17     Cs3   v096
        BYTE   W18
        BYTE                   Gs3
        BYTE   W18
        BYTE           N44     Fn3   v096   gtp3
        BYTE   W48
        BYTE           N11     Cs3
        BYTE   W12
        BYTE   PEND
// 041   ----------------------------------------
FNO_1_41:
        BYTE           N17     Cn3   v096
        BYTE   W18
        BYTE           N06     Gs3
        BYTE   W06
        BYTE           N11
        BYTE   W12
        BYTE           N17     As3
        BYTE   W18
        BYTE                   Gs3
        BYTE   W18
        BYTE           N11     Fn3
        BYTE   W12
        BYTE           N05     Ds3
        BYTE   W06
        BYTE           N52     Cs3   v096   gtp1
        BYTE   W06
        BYTE   PEND
// 042   ----------------------------------------
FNO_1_42:
        BYTE   W84
        BYTE           N05     Gs2   v096
        BYTE   W12
        BYTE   PEND
// 043   ----------------------------------------
        BYTE           N08     Fn3
        BYTE   W18
        BYTE                   Fs3
        BYTE   W18
        BYTE           N32     Ds3   v096   gtp3
        BYTE   W48
        BYTE           N05     Fn3
        BYTE   W06
        BYTE                   Fs3
        BYTE   W06
// 044   ----------------------------------------
        BYTE   PATT
         POIN2  FNO_1_36
// 045   ----------------------------------------
        BYTE           N08     Ds3   v096
        BYTE   W18
        BYTE                   Ds3
        BYTE   W18
        BYTE           N28     Ds3   v096   gtp1
        BYTE   W48
        BYTE           N05     Fn3
        BYTE   W06
        BYTE                   Ds3
        BYTE   W06
// 046   ----------------------------------------
        BYTE   PATT
         POIN2  FNO_1_38
// 047   ----------------------------------------
        BYTE   PATT
         POIN2  FNO_1_39
// 048   ----------------------------------------
        BYTE   PATT
         POIN2  FNO_1_40
// 049   ----------------------------------------
        BYTE   PATT
         POIN2  FNO_1_41
// 050   ----------------------------------------
        BYTE   PATT
         POIN2  FNO_1_42
// 051   ----------------------------------------
FNO_1_51:
        BYTE           N08     Fn3   v096
        BYTE   W18
        BYTE                   Fs3
        BYTE   W18
        BYTE           N32     Ds3   v096   gtp3
        BYTE   W48
        BYTE           N05     Cs3
        BYTE   W12
        BYTE   PEND
// 052   ----------------------------------------
FNO_1_52:
        BYTE           N68     Cs3   v096   gtp3
        BYTE   W72
        BYTE           N23     Gs2
        BYTE   W24
        BYTE   PEND
// 053   ----------------------------------------
        BYTE                   Fn3
        BYTE   W24
        BYTE                   Fs3
        BYTE   W24
        BYTE           N32     Ds3   v096   gtp3
        BYTE   W36
        BYTE           N05     Cs3
        BYTE   W12
// 054   ----------------------------------------
        BYTE   PATT
         POIN2  FNO_1_52
// 055   ----------------------------------------
FNO_1_55:
        BYTE           N23     Gs3   v096
        BYTE   W24
        BYTE                   Fs3
        BYTE   W24
        BYTE           N17     Fn3
        BYTE   W18
        BYTE           N08     Ds3
        BYTE   W18
        BYTE           N80     Cs3   v096   gtp3
        BYTE   W12
        BYTE   PEND
// 056   ----------------------------------------
        BYTE   W72
        BYTE           N23     Cs4
        BYTE   W24
// 057   ----------------------------------------
        BYTE                   Cn4
        BYTE   W24
        BYTE                   As3
        BYTE   W24
        BYTE           N17     Gs3
        BYTE   W18
        BYTE           N08     Fs3
        BYTE   W18
        BYTE           N80     Fn3   v096   gtp3
        BYTE   W12
// 058   ----------------------------------------
FNO_1_58:
        BYTE   W72
        BYTE           N23     Gs2   v096
        BYTE   W24
        BYTE   PEND
// 059   ----------------------------------------
        BYTE                   Fn3
        BYTE   W24
        BYTE                   Fs3
        BYTE   W24
        BYTE                   Ds3
        BYTE   W24
        BYTE                   Cs3
        BYTE   W24
// 060   ----------------------------------------
        BYTE   W23
        BYTE   GoTo
         POIN2  FNO_1_LOOP
        BYTE   FINE

//****************** Track 2 (Midi-Chn.8) ******************//

FNO_2:
        BYTE   KEYSH   FNO_key+0
// 000   ----------------------------------------
FNO_2_LOOP:
        BYTE           PAN     c_v+12
        BYTE           VOL     45
        BYTE           VOICE   65
        BYTE           BENDR   12
        BYTE           VOICE   45
        BYTE   W96
// 001   ----------------------------------------
        BYTE   W96
// 002   ----------------------------------------
        BYTE   W96
// 003   ----------------------------------------
        BYTE   W96
// 004   ----------------------------------------
        BYTE   W96
// 005   ----------------------------------------
        BYTE   W96
// 006   ----------------------------------------
        BYTE   W96
// 007   ----------------------------------------
        BYTE   W96
// 008   ----------------------------------------
        BYTE   W96
// 009   ----------------------------------------
        BYTE   W96
// 010   ----------------------------------------
        BYTE   W96
// 011   ----------------------------------------
        BYTE   W96
// 012   ----------------------------------------
        BYTE   W96
// 013   ----------------------------------------
        BYTE   W96
// 014   ----------------------------------------
        BYTE   W96
// 015   ----------------------------------------
        BYTE   W96
// 016   ----------------------------------------
        BYTE   W96
// 017   ----------------------------------------
        BYTE   W96
// 018   ----------------------------------------
        BYTE   W96
// 019   ----------------------------------------
        BYTE   W96
// 020   ----------------------------------------
        BYTE   W96
// 021   ----------------------------------------
        BYTE   W96
// 022   ----------------------------------------
        BYTE   W96
// 023   ----------------------------------------
        BYTE   W96
// 024   ----------------------------------------
        BYTE   W96
// 025   ----------------------------------------
        BYTE   W96
// 026   ----------------------------------------
        BYTE   W96
// 027   ----------------------------------------
        BYTE   W96
// 028   ----------------------------------------
        BYTE   W96
// 029   ----------------------------------------
        BYTE   W96
// 030   ----------------------------------------
        BYTE   W96
// 031   ----------------------------------------
        BYTE   W96
// 032   ----------------------------------------
        BYTE   W96
// 033   ----------------------------------------
        BYTE   W96
// 034   ----------------------------------------
        BYTE   W96
// 035   ----------------------------------------
        BYTE   W96
// 036   ----------------------------------------
        BYTE   W96
// 037   ----------------------------------------
        BYTE   W96
// 038   ----------------------------------------
        BYTE   W96
// 039   ----------------------------------------
        BYTE   W96
// 040   ----------------------------------------
        BYTE   W96
// 041   ----------------------------------------
        BYTE   W96
// 042   ----------------------------------------
        BYTE   W96
// 043   ----------------------------------------
        BYTE   W84
        BYTE           N05     Cs3   v096
        BYTE   W12
// 044   ----------------------------------------
        BYTE           N08
        BYTE   W18
        BYTE                   Cs3
        BYTE   W18
        BYTE           N44     Cs3   v096   gtp3
        BYTE   W48
        BYTE           N05     As2
        BYTE   W06
        BYTE                   Gs2
        BYTE   W06
// 045   ----------------------------------------
        BYTE           N08
        BYTE           N08     Cn3
        BYTE   W18
        BYTE                   Gs2
        BYTE           N08     Cn3
        BYTE   W18
        BYTE           N28     Gs2   v096   gtp1
        BYTE                   Cn3
        BYTE   W48
        BYTE           N05     Gs2
        BYTE   W06
        BYTE                   Fs2
        BYTE   W06
// 046   ----------------------------------------
        BYTE           N08
        BYTE   W18
        BYTE                   As3
        BYTE   W18
        BYTE           N17     Gs3
        BYTE   W18
        BYTE           N08     Fs3
        BYTE   W06
        BYTE           N11     Ds3
        BYTE   W12
        BYTE                   Fn3
        BYTE   W12
        BYTE                   Ds3
        BYTE   W12
// 047   ----------------------------------------
        BYTE           N32     Cs3   v096   gtp3
        BYTE   W36
        BYTE           N05     Ds3
        BYTE   W06
        BYTE                   Cs3
        BYTE   W06
        BYTE           N32     Cn3   v096   gtp3
        BYTE   W36
        BYTE           N05     As2
        BYTE   W06
        BYTE                   Gs2
        BYTE   W06
// 048   ----------------------------------------
        BYTE           N17     As2
        BYTE   W18
        BYTE                   As2
        BYTE           N17     Fn3
        BYTE   W18
        BYTE           N44     As2   v096   gtp3
        BYTE                   Cs3
        BYTE   W48
        BYTE           N11     As2
        BYTE   W12
// 049   ----------------------------------------
        BYTE           N17     Gs2
        BYTE   W18
        BYTE           N06     Fn3
        BYTE   W06
        BYTE           N11
        BYTE   W12
        BYTE           N17     Fs3
        BYTE   W18
        BYTE                   Fn3
        BYTE   W18
        BYTE           N11     Cs3
        BYTE   W12
        BYTE           N05     Cn3
        BYTE   W06
        BYTE           N52     As2   v096   gtp1
        BYTE   W06
// 050   ----------------------------------------
        BYTE   PATT
         POIN2  FNO_1_42
// 051   ----------------------------------------
        BYTE   PATT
         POIN2  FNO_1_51
// 052   ----------------------------------------
        BYTE   PATT
         POIN2  FNO_1_52
// 053   ----------------------------------------
        BYTE           N44     Cs3   v096   gtp3
        BYTE   W48
        BYTE           N32     Cn3   v064   gtp3
        BYTE   W36
        BYTE           N05     Gs2   v096
        BYTE   W12
// 054   ----------------------------------------
        BYTE           N68     As2   v064   gtp3
        BYTE   W72
        BYTE           N23     Gs2   v096
        BYTE   W24
// 055   ----------------------------------------
        BYTE           N44     Cs3   v096   gtp3
        BYTE   W48
        BYTE           N32     Cn3   v064   gtp3
        BYTE   W36
        BYTE           N80     As2   v096   gtp3
        BYTE   W12
// 056   ----------------------------------------
        BYTE   W72
        BYTE           N23     As3
        BYTE   W24
// 057   ----------------------------------------
        BYTE   PATT
         POIN2  FNO_1_55
// 058   ----------------------------------------
        BYTE   PATT
         POIN2  FNO_1_58
// 059   ----------------------------------------
        BYTE           N44     Cs3   v096   gtp3
        BYTE   W48
        BYTE                   Cn3   v064
        BYTE   W48
// 060   ----------------------------------------
        BYTE   W23
        BYTE   GoTo
         POIN2  FNO_2_LOOP
        BYTE   FINE

//****************** Track 3 (Midi-Chn.7) ******************//

FNO_3:
        BYTE   KEYSH   FNO_key+0
// 000   ----------------------------------------
FNO_3_LOOP:
        BYTE           VOL     25
        BYTE           PAN     c_v-1
        BYTE           VOICE   40
        BYTE           BENDR   12
        BYTE   W96
// 001   ----------------------------------------
        BYTE   W96
// 002   ----------------------------------------
        BYTE   W96
// 003   ----------------------------------------
        BYTE   W96
// 004   ----------------------------------------
        BYTE   W96
// 005   ----------------------------------------
        BYTE   W96
// 006   ----------------------------------------
        BYTE   W96
// 007   ----------------------------------------
        BYTE   W96
// 008   ----------------------------------------
        BYTE           TIE     Gs4   v064
        BYTE   W96
// 009   ----------------------------------------
        BYTE   W92
        BYTE   W03
        BYTE           EOT
        BYTE   W01
// 010   ----------------------------------------
        BYTE           N92     Cs5   v064   gtp3
        BYTE   W96
// 011   ----------------------------------------
FNO_3_11:
        BYTE           N44     Ds5   v064   gtp3
        BYTE   W48
        BYTE                   Fn5
        BYTE   W48
        BYTE   PEND
// 012   ----------------------------------------
        BYTE           TIE     Gs4
        BYTE   W96
// 013   ----------------------------------------
        BYTE   W92
        BYTE   W03
        BYTE           EOT
        BYTE   W01
// 014   ----------------------------------------
        BYTE           N92     Cs5   v064   gtp3
        BYTE   W96
// 015   ----------------------------------------
        BYTE   PATT
         POIN2  FNO_3_11
// 016   ----------------------------------------
FNO_3_16:
        BYTE   W42
        BYTE           N02     Fs5   v080
        BYTE   W12
        BYTE           N05
        BYTE   W06
        BYTE                   Fn5
        BYTE   W12
        BYTE           N02     Ds5
        BYTE   W06
        BYTE           N05     Cs5
        BYTE   W12
        BYTE           N52     Cs5   v080   gtp1
        BYTE   W06
        BYTE   PEND
// 017   ----------------------------------------
        BYTE   W96
// 018   ----------------------------------------
        BYTE   PATT
         POIN2  FNO_3_16
// 019   ----------------------------------------
        BYTE   W96
// 020   ----------------------------------------
FNO_3_20:
        BYTE   W12
        BYTE           N05     Cs4   v075
        BYTE   W12
        BYTE           N02
        BYTE   W06
        BYTE                   Cs4
        BYTE   W12
        BYTE           N17
        BYTE   W18
        BYTE           N11     Ds4
        BYTE   W12
        BYTE                   Cn4
        BYTE   W12
        BYTE           N05     Cs4
        BYTE   W12
        BYTE   PEND
// 021   ----------------------------------------
        BYTE   W12
        BYTE                   Cs4
        BYTE   W12
        BYTE           N02
        BYTE   W06
        BYTE                   Cs4
        BYTE   W12
        BYTE           N17
        BYTE   W18
        BYTE           N11     Ds4
        BYTE   W12
        BYTE           N23     Fn4
        BYTE   W24
// 022   ----------------------------------------
        BYTE   PATT
         POIN2  FNO_3_20
// 023   ----------------------------------------
        BYTE   W12
        BYTE           N05     Cs4   v075
        BYTE   W12
        BYTE           N02     Ds4
        BYTE   W06
        BYTE                   Fn4
        BYTE   W12
        BYTE           N11     Gs4
        BYTE   W18
        BYTE                   As4
        BYTE   W12
        BYTE                   Fn4
        BYTE   W12
        BYTE                   Fs4
        BYTE   W12
// 024   ----------------------------------------
        BYTE           N08     Gs4
        BYTE   W18
        BYTE                   As4
        BYTE   W18
        BYTE           N23     Fn4
        BYTE   W48
        BYTE           N05
        BYTE   W06
        BYTE                   Fs4
        BYTE   W06
// 025   ----------------------------------------
        BYTE           N17     Gs4
        BYTE   W18
        BYTE                   As4
        BYTE   W18
        BYTE                   Fn4
        BYTE   W18
        BYTE                   Cs5
        BYTE   W18
        BYTE           N11     Cn5
        BYTE   W12
        BYTE                   Gs4
        BYTE   W12
// 026   ----------------------------------------
        BYTE           N92     Fn4   v075   gtp3
        BYTE   W96
// 027   ----------------------------------------
        BYTE   W96
// 028   ----------------------------------------
        BYTE                   Fn5   v064
        BYTE   W96
// 029   ----------------------------------------
        BYTE                   Ds5
        BYTE   W96
// 030   ----------------------------------------
        BYTE                   Cs5
        BYTE   W96
// 031   ----------------------------------------
        BYTE                   Cn5
        BYTE   W96
// 032   ----------------------------------------
        BYTE           N08     Ds5   v080
        BYTE   W18
        BYTE                   Fn5
        BYTE   W18
        BYTE           N23     As4
        BYTE   W48
        BYTE           N05     Cn5
        BYTE   W06
        BYTE                   Cs5
        BYTE   W06
// 033   ----------------------------------------
        BYTE           N17     Ds5
        BYTE   W18
        BYTE                   Fn5
        BYTE   W18
        BYTE                   Gs5
        BYTE   W18
        BYTE                   Fn5
        BYTE   W18
        BYTE           N11     Ds5
        BYTE   W12
        BYTE                   Fn5
        BYTE   W12
// 034   ----------------------------------------
        BYTE           N92     As4   v080   gtp3
        BYTE   W96
// 035   ----------------------------------------
        BYTE   W96
// 036   ----------------------------------------
FNO_3_36:
        BYTE           N92     Gs4   v064   gtp3
        BYTE                   Cs5
        BYTE   W96
        BYTE   PEND
// 037   ----------------------------------------
FNO_3_37:
        BYTE           N92     Fn4   v064   gtp3
        BYTE                   As4
        BYTE   W96
        BYTE   PEND
// 038   ----------------------------------------
        BYTE                   Gs4
        BYTE   W96
// 039   ----------------------------------------
FNO_3_39:
        BYTE           N92     Fn4   v064   gtp3
        BYTE           N44     Gs4   v064   gtp3
        BYTE   W48
        BYTE                   An4
        BYTE   W48
        BYTE   PEND
// 040   ----------------------------------------
        BYTE           N92     Gs4   v064   gtp3
        BYTE   W96
// 041   ----------------------------------------
        BYTE   PATT
         POIN2  FNO_3_37
// 042   ----------------------------------------
FNO_3_42:
        BYTE           N92     Fn4   v064   gtp3
        BYTE                   Gs4
        BYTE   W96
        BYTE   PEND
// 043   ----------------------------------------
        BYTE   PATT
         POIN2  FNO_3_39
// 044   ----------------------------------------
        BYTE   PATT
         POIN2  FNO_3_36
// 045   ----------------------------------------
        BYTE   PATT
         POIN2  FNO_3_37
// 046   ----------------------------------------
        BYTE           N92     Gs4   v064   gtp3
        BYTE   W96
// 047   ----------------------------------------
        BYTE   PATT
         POIN2  FNO_3_39
// 048   ----------------------------------------
        BYTE           N92     Gs4   v064   gtp3
        BYTE   W96
// 049   ----------------------------------------
        BYTE   PATT
         POIN2  FNO_3_37
// 050   ----------------------------------------
        BYTE   PATT
         POIN2  FNO_3_42
// 051   ----------------------------------------
        BYTE   PATT
         POIN2  FNO_3_39
// 052   ----------------------------------------
        BYTE           N92     Fn4   v064   gtp3
        BYTE   W96
// 053   ----------------------------------------
FNO_3_53:
        BYTE           N32     Cs4   v064   gtp3
        BYTE   W36
        BYTE           N56     Ds4   v064   gtp3
        BYTE   W60
        BYTE   PEND
// 054   ----------------------------------------
        BYTE           N92     Fn4   v064   gtp3
        BYTE   W96
// 055   ----------------------------------------
        BYTE   PATT
         POIN2  FNO_3_53
// 056   ----------------------------------------
        BYTE           N92     Fn4   v064   gtp3
        BYTE   W96
// 057   ----------------------------------------
        BYTE   PATT
         POIN2  FNO_3_53
// 058   ----------------------------------------
        BYTE           N92     Fn4   v064   gtp3
        BYTE   W96
// 059   ----------------------------------------
        BYTE   W96
// 060   ----------------------------------------
        BYTE   W23
        BYTE   GoTo
         POIN2  FNO_3_LOOP
        BYTE   FINE

//****************** Track 4 (Midi-Chn.5) ******************//

FNO_4:
        BYTE   KEYSH   FNO_key+0
// 000   ----------------------------------------
FNO_4_LOOP:
        BYTE           PAN     c_v-1
        BYTE           VOL     38
        BYTE           VOICE   42
        BYTE           BENDR   12
        BYTE   W96
// 001   ----------------------------------------
        BYTE   W96
// 002   ----------------------------------------
        BYTE   W96
// 003   ----------------------------------------
        BYTE   W96
// 004   ----------------------------------------
        BYTE           N32     As1   v080   gtp3
        BYTE   W36
        BYTE                   As1
        BYTE   W60
// 005   ----------------------------------------
        BYTE                   As1
        BYTE   W36
        BYTE           N23
        BYTE   W24
        BYTE           N11     Fn2
        BYTE   W12
        BYTE                   Ds2
        BYTE   W12
        BYTE                   Gs1
        BYTE   W12
// 006   ----------------------------------------
        BYTE           N32     As1   v080   gtp3
        BYTE   W36
        BYTE                   As1
        BYTE   W54
        BYTE           N17     Fs1
        BYTE   W06
// 007   ----------------------------------------
        BYTE   W48
        BYTE           N23     Gs1
        BYTE   W24
        BYTE                   An1
        BYTE   W24
// 008   ----------------------------------------
FNO_4_8:
        BYTE           N17     As1   v080
        BYTE   W18
        BYTE           N05
        BYTE   W24
        BYTE           N17
        BYTE   W18
        BYTE           N11
        BYTE   W12
        BYTE           N17     Gs1
        BYTE   W18
        BYTE           N05     As1
        BYTE   W06
        BYTE   PEND
// 009   ----------------------------------------
FNO_4_9:
        BYTE   W12
        BYTE           N05     Ds2   v080
        BYTE   W06
        BYTE                   As1
        BYTE   W24
        BYTE           N17
        BYTE   W18
        BYTE           N11
        BYTE   W12
        BYTE           N23     Gs1
        BYTE   W24
        BYTE   PEND
// 010   ----------------------------------------
FNO_4_10:
        BYTE           N17     As1   v080
        BYTE   W18
        BYTE           N05
        BYTE   W24
        BYTE           N17
        BYTE   W18
        BYTE           N11
        BYTE   W12
        BYTE           N17     Gs1
        BYTE   W18
        BYTE                   Fs1
        BYTE   W06
        BYTE   PEND
// 011   ----------------------------------------
FNO_4_11:
        BYTE   W12
        BYTE           N11     Fs1   v080
        BYTE   W30
        BYTE           N17
        BYTE   W18
        BYTE           N11
        BYTE   W12
        BYTE           N23     Gs1
        BYTE   W24
        BYTE   PEND
// 012   ----------------------------------------
        BYTE   PATT
         POIN2  FNO_4_8
// 013   ----------------------------------------
        BYTE   PATT
         POIN2  FNO_4_9
// 014   ----------------------------------------
        BYTE   PATT
         POIN2  FNO_4_10
// 015   ----------------------------------------
        BYTE   PATT
         POIN2  FNO_4_11
// 016   ----------------------------------------
FNO_4_16:
        BYTE           N11     Ds1   v080
        BYTE   W12
        BYTE                   Ds1
        BYTE   W30
        BYTE           N17
        BYTE   W18
        BYTE           N11
        BYTE   W36
        BYTE   PEND
// 017   ----------------------------------------
        BYTE                   Ds1
        BYTE   W12
        BYTE                   As1
        BYTE   W30
        BYTE           N17     Fs1
        BYTE   W18
        BYTE           N11
        BYTE   W12
        BYTE           N23     Gs1
        BYTE   W24
// 018   ----------------------------------------
        BYTE   PATT
         POIN2  FNO_4_16
// 019   ----------------------------------------
        BYTE           N11     Ds1   v080
        BYTE   W12
        BYTE                   As1
        BYTE   W30
        BYTE           N17     Fs1
        BYTE   W54
// 020   ----------------------------------------
FNO_4_20:
        BYTE           N11     As1   v080
        BYTE   W12
        BYTE                   As1
        BYTE   W30
        BYTE           N17
        BYTE   W18
        BYTE           N11
        BYTE   W12
        BYTE           N17     Gs1
        BYTE   W18
        BYTE           N05     As1
        BYTE   W06
        BYTE   PEND
// 021   ----------------------------------------
FNO_4_21:
        BYTE   W12
        BYTE           N11     As1   v080
        BYTE   W30
        BYTE           N17
        BYTE   W18
        BYTE           N11
        BYTE   W12
        BYTE           N23     Gs1
        BYTE   W24
        BYTE   PEND
// 022   ----------------------------------------
        BYTE   PATT
         POIN2  FNO_4_20
// 023   ----------------------------------------
        BYTE   PATT
         POIN2  FNO_4_21
// 024   ----------------------------------------
FNO_4_24:
        BYTE           N11     Fs1   v080
        BYTE   W12
        BYTE                   Fs1
        BYTE   W30
        BYTE           N17
        BYTE   W18
        BYTE           N11
        BYTE   W12
        BYTE           N23     Gs1
        BYTE   W24
        BYTE   PEND
// 025   ----------------------------------------
FNO_4_25:
        BYTE           N11     Gs1   v080
        BYTE   W12
        BYTE                   Gs1
        BYTE   W30
        BYTE           N17
        BYTE   W18
        BYTE           N11
        BYTE   W12
        BYTE           N05
        BYTE   W06
        BYTE                   As1
        BYTE   W06
        BYTE           N11     Gs1
        BYTE   W12
        BYTE   PEND
// 026   ----------------------------------------
FNO_4_26:
        BYTE           N11     As1   v080
        BYTE   W12
        BYTE                   As1
        BYTE   W30
        BYTE           N17
        BYTE   W18
        BYTE           N11
        BYTE   W12
        BYTE           N05
        BYTE   W06
        BYTE                   Gs1
        BYTE   W12
        BYTE                   Fs1
        BYTE   W06
        BYTE   PEND
// 027   ----------------------------------------
        BYTE   PATT
         POIN2  FNO_4_11
// 028   ----------------------------------------
        BYTE   PATT
         POIN2  FNO_4_20
// 029   ----------------------------------------
        BYTE   PATT
         POIN2  FNO_4_21
// 030   ----------------------------------------
        BYTE   PATT
         POIN2  FNO_4_20
// 031   ----------------------------------------
        BYTE   PATT
         POIN2  FNO_4_21
// 032   ----------------------------------------
        BYTE   PATT
         POIN2  FNO_4_24
// 033   ----------------------------------------
        BYTE   PATT
         POIN2  FNO_4_25
// 034   ----------------------------------------
        BYTE   PATT
         POIN2  FNO_4_26
// 035   ----------------------------------------
        BYTE   PATT
         POIN2  FNO_4_11
// 036   ----------------------------------------
FNO_4_36:
        BYTE           N92     Fs2   v049   gtp3
        BYTE           N11     Ds1   v080
        BYTE   W12
        BYTE                   Ds1
        BYTE   W30
        BYTE           N17
        BYTE   W18
        BYTE           N11
        BYTE   W12
        BYTE           N05     As1
        BYTE   W06
        BYTE                   Ds1
        BYTE   W12
        BYTE           N17     Gs1
        BYTE   W06
        BYTE   PEND
// 037   ----------------------------------------
FNO_4_37:
        BYTE           N92     Gs2   v049   gtp3
        BYTE   W12
        BYTE           N11     Cs2   v080
        BYTE   W30
        BYTE           N17     Fs1
        BYTE   W18
        BYTE           N11
        BYTE   W12
        BYTE           N05
        BYTE   W06
        BYTE                   Gs1
        BYTE   W18
        BYTE   PEND
// 038   ----------------------------------------
        BYTE   PATT
         POIN2  FNO_4_36
// 039   ----------------------------------------
FNO_4_39:
        BYTE           N44     Gs2   v049   gtp3
        BYTE   W12
        BYTE           N11     Gs1   v080
        BYTE   W30
        BYTE           N17     An1
        BYTE   W06
        BYTE           N44     An2   v049   gtp3
        BYTE   W12
        BYTE           N11     An1   v080
        BYTE   W12
        BYTE           N23     Ds2
        BYTE   W24
        BYTE   PEND
// 040   ----------------------------------------
FNO_4_40:
        BYTE           N92     Fs2   v049   gtp3
        BYTE           N11     Ds1   v080
        BYTE   W12
        BYTE                   Ds1
        BYTE   W30
        BYTE           N17
        BYTE   W18
        BYTE           N11
        BYTE   W12
        BYTE           N05     Fs1
        BYTE   W06
        BYTE                   Ds1
        BYTE   W12
        BYTE           N17     Fn1
        BYTE   W06
        BYTE   PEND
// 041   ----------------------------------------
FNO_4_41:
        BYTE           N92     Gs2   v049   gtp3
        BYTE   W12
        BYTE           N11     Cs2   v080
        BYTE   W30
        BYTE           N17     Fs1
        BYTE   W18
        BYTE           N11
        BYTE   W12
        BYTE           N05     As1
        BYTE   W06
        BYTE                   Gs1
        BYTE   W18
        BYTE   PEND
// 042   ----------------------------------------
        BYTE   PATT
         POIN2  FNO_4_36
// 043   ----------------------------------------
        BYTE   PATT
         POIN2  FNO_4_39
// 044   ----------------------------------------
        BYTE   PATT
         POIN2  FNO_4_36
// 045   ----------------------------------------
        BYTE   PATT
         POIN2  FNO_4_37
// 046   ----------------------------------------
        BYTE   PATT
         POIN2  FNO_4_36
// 047   ----------------------------------------
        BYTE   PATT
         POIN2  FNO_4_39
// 048   ----------------------------------------
        BYTE   PATT
         POIN2  FNO_4_40
// 049   ----------------------------------------
        BYTE   PATT
         POIN2  FNO_4_41
// 050   ----------------------------------------
        BYTE   PATT
         POIN2  FNO_4_36
// 051   ----------------------------------------
        BYTE   PATT
         POIN2  FNO_4_39
// 052   ----------------------------------------
FNO_4_52:
        BYTE           N32     As2   v049   gtp3
        BYTE                   As1   v080
        BYTE   W36
        BYTE           N56     Gs2   v049   gtp3
        BYTE                   Gs1   v080
        BYTE   W60
        BYTE   PEND
// 053   ----------------------------------------
FNO_4_53:
        BYTE           N32     Fs2   v049   gtp3
        BYTE                   Fs1   v080
        BYTE   W36
        BYTE           N56     Gs2   v049   gtp3
        BYTE                   Gs1   v080
        BYTE   W60
        BYTE   PEND
// 054   ----------------------------------------
        BYTE   PATT
         POIN2  FNO_4_52
// 055   ----------------------------------------
        BYTE   PATT
         POIN2  FNO_4_53
// 056   ----------------------------------------
        BYTE   PATT
         POIN2  FNO_4_52
// 057   ----------------------------------------
        BYTE   PATT
         POIN2  FNO_4_53
// 058   ----------------------------------------
        BYTE   PATT
         POIN2  FNO_4_52
// 059   ----------------------------------------
        BYTE           N44     Fs1   v080   gtp3
        BYTE   W48
        BYTE                   Gs1
        BYTE   W48
// 060   ----------------------------------------
        BYTE   W23
        BYTE   GoTo
         POIN2  FNO_4_LOOP
        BYTE   FINE

//***************** Track 5 (Midi-Chn.10) ******************//

FNO_5:
        BYTE   KEYSH   FNO_key+0
// 000   ----------------------------------------
FNO_5_LOOP:
        BYTE           VOL     38
        BYTE           VOICE   52
        BYTE           BENDR   12
        BYTE   W96
// 001   ----------------------------------------
        BYTE   W96
// 002   ----------------------------------------
        BYTE   W96
// 003   ----------------------------------------
        BYTE   W96
// 004   ----------------------------------------
        BYTE   W96
// 005   ----------------------------------------
        BYTE   W96
// 006   ----------------------------------------
        BYTE   W96
// 007   ----------------------------------------
        BYTE   W96
// 008   ----------------------------------------
        BYTE   W96
// 009   ----------------------------------------
        BYTE   W96
// 010   ----------------------------------------
        BYTE   W96
// 011   ----------------------------------------
        BYTE   W96
// 012   ----------------------------------------
        BYTE   W96
// 013   ----------------------------------------
        BYTE   W96
// 014   ----------------------------------------
        BYTE   W96
// 015   ----------------------------------------
        BYTE   W96
// 016   ----------------------------------------
        BYTE   W96
// 017   ----------------------------------------
        BYTE   W96
// 018   ----------------------------------------
        BYTE   W96
// 019   ----------------------------------------
        BYTE   W96
// 020   ----------------------------------------
        BYTE   W96
// 021   ----------------------------------------
        BYTE   W96
// 022   ----------------------------------------
        BYTE   W96
// 023   ----------------------------------------
        BYTE   W96
// 024   ----------------------------------------
        BYTE   W96
// 025   ----------------------------------------
        BYTE   W96
// 026   ----------------------------------------
        BYTE   W96
// 027   ----------------------------------------
        BYTE   W96
// 028   ----------------------------------------
        BYTE   W96
// 029   ----------------------------------------
        BYTE   W96
// 030   ----------------------------------------
        BYTE   W96
// 031   ----------------------------------------
        BYTE   W96
// 032   ----------------------------------------
        BYTE   W96
// 033   ----------------------------------------
        BYTE   W96
// 034   ----------------------------------------
        BYTE   W96
// 035   ----------------------------------------
        BYTE   W96
// 036   ----------------------------------------
        BYTE   W96
// 037   ----------------------------------------
        BYTE   W96
// 038   ----------------------------------------
        BYTE   W96
// 039   ----------------------------------------
        BYTE   W96
// 040   ----------------------------------------
        BYTE   W96
// 041   ----------------------------------------
        BYTE   W96
// 042   ----------------------------------------
        BYTE   W96
// 043   ----------------------------------------
        BYTE   W96
// 044   ----------------------------------------
        BYTE   W96
// 045   ----------------------------------------
        BYTE   W96
// 046   ----------------------------------------
        BYTE   W96
// 047   ----------------------------------------
        BYTE   W96
// 048   ----------------------------------------
        BYTE   W96
// 049   ----------------------------------------
        BYTE   W96
// 050   ----------------------------------------
        BYTE   W96
// 051   ----------------------------------------
        BYTE   W96
// 052   ----------------------------------------
FNO_5_52:
        BYTE           N32     Fn3   v080   gtp3
        BYTE                   As3
        BYTE           N32     Cs4   v080   gtp3
        BYTE   W36
        BYTE           N56     Ds3   v080   gtp3
        BYTE                   Gs3
        BYTE           N56     Cn4   v080   gtp3
        BYTE   W60
        BYTE   PEND
// 053   ----------------------------------------
FNO_5_53:
        BYTE           N32     Cs3   v080   gtp3
        BYTE                   Fs3
        BYTE           N32     As3   v080   gtp3
        BYTE   W36
        BYTE           N56     Cn3   v080   gtp3
        BYTE                   Ds3
        BYTE           N56     Gs3   v080   gtp3
        BYTE                   Cn4
        BYTE   W60
        BYTE   PEND
// 054   ----------------------------------------
        BYTE   PATT
         POIN2  FNO_5_52
// 055   ----------------------------------------
        BYTE   PATT
         POIN2  FNO_5_53
// 056   ----------------------------------------
        BYTE   PATT
         POIN2  FNO_5_52
// 057   ----------------------------------------
        BYTE   PATT
         POIN2  FNO_5_53
// 058   ----------------------------------------
        BYTE   PATT
         POIN2  FNO_5_52
// 059   ----------------------------------------
        BYTE           N44     Cs3   v080   gtp3
        BYTE                   Fs3
        BYTE           N44     As3   v080   gtp3
        BYTE   W48
        BYTE                   Gs3
        BYTE           N44     Cn4   v080   gtp3
        BYTE           N23     Cn3
        BYTE   W24
        BYTE                   Gs2
        BYTE   W24
// 060   ----------------------------------------
        BYTE   W23
        BYTE   GoTo
         POIN2  FNO_5_LOOP
        BYTE   FINE

//****************** Track 6 (Midi-Chn.4) ******************//

FNO_6:
        BYTE   KEYSH   FNO_key+0
// 000   ----------------------------------------
FNO_6_LOOP:
        BYTE           PAN     c_v-1
        BYTE           VOICE   40
        BYTE           VOL     19
        BYTE           BENDR   12
        BYTE   W96
// 001   ----------------------------------------
        BYTE   W96
// 002   ----------------------------------------
        BYTE   W96
// 003   ----------------------------------------
        BYTE   W96
// 004   ----------------------------------------
        BYTE   W96
// 005   ----------------------------------------
        BYTE   W96
// 006   ----------------------------------------
        BYTE   W96
// 007   ----------------------------------------
        BYTE   W96
// 008   ----------------------------------------
FNO_6_8:
        BYTE           N05     As2   v080
        BYTE   W06
        BYTE                   Cs3
        BYTE   W06
        BYTE                   Gs3
        BYTE   W06
        BYTE                   Ds3
        BYTE   W06
        BYTE                   Cs3
        BYTE   W12
        BYTE                   As2
        BYTE   W06
        BYTE                   Cs3
        BYTE   W06
        BYTE                   Gs3
        BYTE   W06
        BYTE                   Ds3
        BYTE   W06
        BYTE                   Cs3
        BYTE   W12
        BYTE                   Cs3
        BYTE   W06
        BYTE                   Ds3
        BYTE   W12
        BYTE                   As2
        BYTE   W06
        BYTE   PEND
// 009   ----------------------------------------
FNO_6_9:
        BYTE   W06
        BYTE           N05     Cs3   v080
        BYTE   W06
        BYTE                   Gs3
        BYTE   W06
        BYTE                   Ds3
        BYTE   W06
        BYTE                   Cs3
        BYTE   W12
        BYTE                   As2
        BYTE   W06
        BYTE                   Cs3
        BYTE   W06
        BYTE                   Gs3
        BYTE   W06
        BYTE                   Fn3
        BYTE   W06
        BYTE                   Ds3
        BYTE   W12
        BYTE           N23     Cn4
        BYTE   W24
        BYTE   PEND
// 010   ----------------------------------------
FNO_6_10:
        BYTE           N05     As2   v080
        BYTE   W06
        BYTE                   Cs3
        BYTE   W06
        BYTE                   Gs3
        BYTE   W06
        BYTE                   Ds3
        BYTE   W06
        BYTE                   Cs3
        BYTE   W12
        BYTE                   As2
        BYTE   W06
        BYTE                   Cs3
        BYTE   W06
        BYTE                   Gs3
        BYTE   W06
        BYTE                   Ds3
        BYTE   W06
        BYTE                   Cs3
        BYTE   W12
        BYTE                   Cs3
        BYTE   W06
        BYTE                   Ds3
        BYTE   W12
        BYTE                   Fs2
        BYTE   W06
        BYTE   PEND
// 011   ----------------------------------------
FNO_6_11:
        BYTE   W06
        BYTE           N05     Cs3   v080
        BYTE   W06
        BYTE                   Gs3
        BYTE   W06
        BYTE                   Fn3
        BYTE   W06
        BYTE                   Ds3
        BYTE   W12
        BYTE           N11     Gs2
        BYTE   W12
        BYTE                   Fn3
        BYTE   W12
        BYTE                   Fs3
        BYTE   W12
        BYTE           N23     Ds3
        BYTE   W24
        BYTE   PEND
// 012   ----------------------------------------
        BYTE   PATT
         POIN2  FNO_6_8
// 013   ----------------------------------------
        BYTE   PATT
         POIN2  FNO_6_9
// 014   ----------------------------------------
        BYTE   PATT
         POIN2  FNO_6_10
// 015   ----------------------------------------
        BYTE   W06
        BYTE           N05     Cs3   v080
        BYTE   W06
        BYTE                   Gs3
        BYTE   W06
        BYTE                   Fn3
        BYTE   W06
        BYTE                   Ds3
        BYTE   W12
        BYTE           N11     Gs2
        BYTE   W12
        BYTE                   Fn3
        BYTE   W12
        BYTE                   Fs3
        BYTE   W12
        BYTE                   Ds3
        BYTE   W12
        BYTE           N05     Cs3
        BYTE   W12
// 016   ----------------------------------------
        BYTE           N44     Cs3   v080   gtp3
        BYTE   W96
// 017   ----------------------------------------
        BYTE   W36
        BYTE           N11     Gs2
        BYTE   W12
        BYTE                   Fn3
        BYTE   W12
        BYTE                   Fs3
        BYTE   W12
        BYTE                   Ds3
        BYTE   W12
        BYTE           N05     Cs3
        BYTE   W12
// 018   ----------------------------------------
        BYTE           N44     Cs3   v080   gtp3
        BYTE   W96
// 019   ----------------------------------------
        BYTE   W36
        BYTE           N11     Gs3
        BYTE   W12
        BYTE                   Fn4
        BYTE   W12
        BYTE                   Fs4
        BYTE   W12
        BYTE           N23     Ds4
        BYTE   W24
// 020   ----------------------------------------
FNO_6_20:
        BYTE           N05     Cs3   v080
        BYTE           N05     As3
        BYTE   W06
        BYTE                   Fn3
        BYTE           N05     Cs4
        BYTE   W06
        BYTE                   Gs3
        BYTE           N05     Gs4
        BYTE   W06
        BYTE                   Ds3
        BYTE           N05     Ds4
        BYTE   W06
        BYTE                   Fn3
        BYTE           N05     Cs4
        BYTE   W06
        BYTE                   Gs3
        BYTE   W06
        BYTE                   As2
        BYTE           N05     As3
        BYTE   W06
        BYTE                   Fn3
        BYTE           N05     Cs4
        BYTE   W06
        BYTE                   Gs3
        BYTE           N05     Gs4
        BYTE   W06
        BYTE                   Ds3
        BYTE           N05     Ds4
        BYTE   W06
        BYTE                   Fn3
        BYTE           N05     Cs4
        BYTE   W12
        BYTE                   As3
        BYTE           N05     Cs4
        BYTE   W06
        BYTE                   Fn3
        BYTE           N05     Ds4
        BYTE   W06
        BYTE                   Gs3
        BYTE           N05     Cs4
        BYTE   W06
        BYTE                   Fn3
        BYTE           N05     As3
        BYTE   W06
        BYTE   PEND
// 021   ----------------------------------------
FNO_6_21:
        BYTE   W06
        BYTE           N05     Fn3   v080
        BYTE           N05     Cs4
        BYTE   W06
        BYTE                   Ds3
        BYTE           N05     Gs4
        BYTE   W06
        BYTE                   Cs3
        BYTE           N05     Ds4
        BYTE   W06
        BYTE                   Fn3
        BYTE           N05     Cs4
        BYTE   W12
        BYTE                   As2
        BYTE           N05     As3
        BYTE   W06
        BYTE                   Cs3
        BYTE           N05     Cs4
        BYTE   W06
        BYTE                   Cn4
        BYTE           N05     Gs4
        BYTE   W06
        BYTE                   As3
        BYTE           N05     Fn4
        BYTE   W06
        BYTE                   Gs3
        BYTE           N05     Ds4
        BYTE   W06
        BYTE                   As3
        BYTE           N05     Fn4
        BYTE   W06
        BYTE           N23     Ds4
        BYTE           N23     Cn5
        BYTE   W24
        BYTE   PEND
// 022   ----------------------------------------
FNO_6_22:
        BYTE           N05     Cs3   v080
        BYTE           N05     As3
        BYTE   W06
        BYTE                   Fn3
        BYTE           N05     Cs4
        BYTE   W06
        BYTE                   Gs3
        BYTE           N05     Gs4
        BYTE   W06
        BYTE                   Ds3
        BYTE           N05     Ds4
        BYTE   W06
        BYTE                   Fn3
        BYTE           N05     Cs4
        BYTE   W06
        BYTE                   Gs3
        BYTE   W06
        BYTE                   As2
        BYTE           N05     As3
        BYTE   W06
        BYTE                   Fn3
        BYTE           N05     Cs4
        BYTE   W06
        BYTE                   Gs3
        BYTE           N05     Gs4
        BYTE   W06
        BYTE                   Ds3
        BYTE           N05     Ds4
        BYTE   W06
        BYTE                   Fn3
        BYTE           N05     Cs4
        BYTE   W12
        BYTE                   As3
        BYTE           N05     Cs4
        BYTE   W06
        BYTE                   Fn3
        BYTE           N05     Ds4
        BYTE   W06
        BYTE                   Gs3
        BYTE           N05     Cs4
        BYTE   W06
        BYTE                   As3
        BYTE   W06
        BYTE   PEND
// 023   ----------------------------------------
FNO_6_23:
        BYTE           N05     As3   v080
        BYTE   W06
        BYTE                   Fn3
        BYTE           N05     Cs4
        BYTE   W06
        BYTE                   Ds3
        BYTE           N05     Gs4
        BYTE   W06
        BYTE                   Fn3
        BYTE           N05     Fn4
        BYTE   W06
        BYTE                   As3
        BYTE           N05     Ds4
        BYTE   W06
        BYTE                   Fn3
        BYTE           N05     Fn4
        BYTE   W12
        BYTE                   Fn3
        BYTE   W06
        BYTE           N11     Cs3
        BYTE           N11     Fn4
        BYTE   W12
        BYTE                   Ds3
        BYTE           N11     Fs4
        BYTE   W12
        BYTE           N23     Cn3
        BYTE           N23     Ds4
        BYTE   W24
        BYTE   PEND
// 024   ----------------------------------------
FNO_6_24:
        BYTE           N05     Fs2   v080
        BYTE   W06
        BYTE                   Cs3
        BYTE           N05     Cs4
        BYTE   W06
        BYTE                   Gs3
        BYTE           N05     Gs4
        BYTE   W06
        BYTE                   Ds3
        BYTE           N05     Fn4
        BYTE   W06
        BYTE                   Cs3
        BYTE           N05     Ds4
        BYTE   W06
        BYTE                   Fn4
        BYTE   W06
        BYTE                   Fs2
        BYTE           N05     Ds4
        BYTE   W06
        BYTE                   Cs3
        BYTE           N05     Cs4
        BYTE   W06
        BYTE                   Gs3
        BYTE           N05     Gs4
        BYTE   W06
        BYTE                   Ds3
        BYTE           N05     Ds4
        BYTE   W06
        BYTE                   Cs3
        BYTE           N05     Cs4
        BYTE   W06
        BYTE                   Ds4
        BYTE   W06
        BYTE                   Cs3
        BYTE           N05     Cs4
        BYTE   W06
        BYTE                   Ds3
        BYTE           N05     Ds4
        BYTE   W06
        BYTE                   Cs3
        BYTE           N05     Cs4
        BYTE   W06
        BYTE                   Gs2
        BYTE           N05     Gs3
        BYTE   W06
        BYTE   PEND
// 025   ----------------------------------------
FNO_6_25:
        BYTE           N05     Gs2   v080
        BYTE   W06
        BYTE                   Cs3
        BYTE           N05     Cs4
        BYTE   W06
        BYTE                   Gs3
        BYTE           N05     Gs4
        BYTE   W06
        BYTE                   Ds3
        BYTE           N05     Ds4
        BYTE   W06
        BYTE                   Cs3
        BYTE           N05     Cs4
        BYTE   W06
        BYTE                   Ds4
        BYTE   W06
        BYTE                   Gs2
        BYTE           N05     Cs4
        BYTE   W06
        BYTE                   Gs3
        BYTE   W06
        BYTE                   Cs4
        BYTE           N05     Cs5
        BYTE   W06
        BYTE                   Cn4
        BYTE           N05     Cn5
        BYTE   W06
        BYTE                   As3
        BYTE           N05     As4
        BYTE   W06
        BYTE                   Fn3
        BYTE           N05     Fn4
        BYTE   W06
        BYTE                   Ds3
        BYTE           N05     Ds4
        BYTE   W06
        BYTE                   Fn3
        BYTE           N05     Fn4
        BYTE   W06
        BYTE                   Ds3
        BYTE           N05     Ds4
        BYTE   W06
        BYTE                   Cs3
        BYTE           N05     Cs4
        BYTE   W06
        BYTE   PEND
// 026   ----------------------------------------
FNO_6_26:
        BYTE           N05     Cs3   v080
        BYTE           N05     As3
        BYTE   W06
        BYTE                   Fn3
        BYTE           N05     Cs4
        BYTE   W06
        BYTE                   Gs3
        BYTE           N05     Gs4
        BYTE   W06
        BYTE                   Ds3
        BYTE           N05     Ds4
        BYTE   W06
        BYTE                   Fn3
        BYTE           N05     Cs4
        BYTE   W06
        BYTE                   Gs3
        BYTE   W06
        BYTE                   As2
        BYTE           N05     As3
        BYTE   W06
        BYTE                   Fn3
        BYTE           N05     Cs4
        BYTE   W06
        BYTE                   Gs3
        BYTE           N05     Gs4
        BYTE   W06
        BYTE                   Ds3
        BYTE           N05     Ds4
        BYTE   W06
        BYTE                   Fn3
        BYTE           N05     Cs4
        BYTE   W12
        BYTE                   As3
        BYTE           N05     Cs4
        BYTE   W06
        BYTE                   Fn3
        BYTE           N05     Ds4
        BYTE   W06
        BYTE                   Gs3
        BYTE   W06
        BYTE                   Fs3
        BYTE   W06
        BYTE   PEND
// 027   ----------------------------------------
FNO_6_27:
        BYTE   W06
        BYTE           N05     Fn3   v080
        BYTE           N05     Cs4
        BYTE   W06
        BYTE                   Ds3
        BYTE           N05     Gs4
        BYTE   W06
        BYTE                   Fn3
        BYTE           N05     Fn4
        BYTE   W06
        BYTE                   As3
        BYTE           N05     Ds4
        BYTE   W06
        BYTE                   Fn3
        BYTE   W12
        BYTE                   Fn3
        BYTE   W06
        BYTE           N11     Cs3
        BYTE           N11     Fn4
        BYTE   W12
        BYTE                   Ds3
        BYTE           N11     Fs4
        BYTE   W12
        BYTE           N23     Cn3
        BYTE           N23     Ds4
        BYTE   W24
        BYTE   PEND
// 028   ----------------------------------------
        BYTE   PATT
         POIN2  FNO_6_20
// 029   ----------------------------------------
        BYTE   PATT
         POIN2  FNO_6_21
// 030   ----------------------------------------
        BYTE   PATT
         POIN2  FNO_6_22
// 031   ----------------------------------------
        BYTE   PATT
         POIN2  FNO_6_23
// 032   ----------------------------------------
        BYTE   PATT
         POIN2  FNO_6_24
// 033   ----------------------------------------
        BYTE   PATT
         POIN2  FNO_6_25
// 034   ----------------------------------------
        BYTE   PATT
         POIN2  FNO_6_26
// 035   ----------------------------------------
        BYTE   PATT
         POIN2  FNO_6_27
// 036   ----------------------------------------
        BYTE           N05     Fs2   v080
        BYTE   W06
        BYTE                   Cs3
        BYTE   W06
        BYTE                   Gs3
        BYTE   W06
        BYTE                   Ds3
        BYTE   W06
        BYTE                   Cs3
        BYTE   W12
        BYTE                   Cs3
        BYTE   W06
        BYTE                   Ds3
        BYTE   W06
        BYTE                   Cs3
        BYTE   W06
        BYTE                   As2
        BYTE   W06
        BYTE                   Cs3
        BYTE   W06
        BYTE                   Ds3
        BYTE   W06
        BYTE                   Cs3
        BYTE   W06
        BYTE                   Ds3
        BYTE   W06
        BYTE                   Cs3
        BYTE   W06
        BYTE                   Gs2
        BYTE   W06
// 037   ----------------------------------------
        BYTE                   Gs2
        BYTE   W06
        BYTE                   Cs3
        BYTE   W06
        BYTE                   Gs3
        BYTE   W06
        BYTE                   Fn3
        BYTE   W06
        BYTE                   Ds3
        BYTE   W12
        BYTE                   As2
        BYTE   W06
        BYTE                   Gs2
        BYTE   W06
        BYTE                   Cs3
        BYTE   W06
        BYTE                   Ds3
        BYTE   W06
        BYTE                   Gs2
        BYTE   W06
        BYTE                   As2
        BYTE   W06
        BYTE                   Cs3
        BYTE   W06
        BYTE                   Cn3
        BYTE   W06
        BYTE                   As2
        BYTE   W06
        BYTE                   Gs2
        BYTE   W06
// 038   ----------------------------------------
        BYTE                   Fs2
        BYTE   W06
        BYTE                   Cs3
        BYTE   W06
        BYTE                   Gs3
        BYTE   W06
        BYTE                   Cs3
        BYTE   W06
        BYTE                   Fs2
        BYTE   W06
        BYTE                   Gs2
        BYTE   W06
        BYTE                   Fs2
        BYTE   W06
        BYTE                   Gs2
        BYTE   W06
        BYTE                   Fs2
        BYTE   W06
        BYTE                   Gs2
        BYTE   W06
        BYTE                   As2
        BYTE   W06
        BYTE                   Cs3
        BYTE   W06
        BYTE                   Ds3
        BYTE   W06
        BYTE                   Cs3
        BYTE   W06
        BYTE                   Cn3
        BYTE   W06
        BYTE                   As2
        BYTE   W06
// 039   ----------------------------------------
FNO_6_39:
        BYTE           N05     Gs2   v080
        BYTE   W12
        BYTE                   Gs2
        BYTE   W06
        BYTE                   Ds3
        BYTE   W06
        BYTE                   As2
        BYTE   W06
        BYTE                   Gs2
        BYTE   W06
        BYTE                   Gs2
        BYTE   W06
        BYTE                   An2
        BYTE   W18
        BYTE                   An2
        BYTE   W12
        BYTE           N23
        BYTE   W24
        BYTE   PEND
// 040   ----------------------------------------
        BYTE           N05     Fs2
        BYTE   W06
        BYTE                   Cs3
        BYTE   W06
        BYTE                   Gs3
        BYTE   W06
        BYTE                   Ds3
        BYTE   W06
        BYTE                   Cs3
        BYTE   W06
        BYTE                   Fs2
        BYTE   W12
        BYTE                   Ds3
        BYTE   W06
        BYTE                   Cs3
        BYTE   W06
        BYTE                   As2
        BYTE   W06
        BYTE                   Cs3
        BYTE   W06
        BYTE                   Ds3
        BYTE   W06
        BYTE                   Cs3
        BYTE   W06
        BYTE                   Ds3
        BYTE   W06
        BYTE                   Cs3
        BYTE   W06
        BYTE                   Gs2
        BYTE   W06
// 041   ----------------------------------------
        BYTE                   Gs2
        BYTE   W06
        BYTE                   Cs3
        BYTE   W06
        BYTE                   Gs3
        BYTE   W06
        BYTE                   Fn3
        BYTE   W06
        BYTE                   Ds3
        BYTE   W12
        BYTE                   As2
        BYTE   W06
        BYTE                   Gs2
        BYTE   W06
        BYTE                   Cs3
        BYTE   W06
        BYTE                   Ds3
        BYTE   W06
        BYTE                   Cs3
        BYTE   W06
        BYTE                   Ds3
        BYTE   W06
        BYTE                   Cs3
        BYTE   W06
        BYTE                   Gs2
        BYTE   W06
        BYTE                   Cs3
        BYTE   W06
        BYTE                   Gs2
        BYTE   W06
// 042   ----------------------------------------
        BYTE                   Fs2
        BYTE   W06
        BYTE                   Cs3
        BYTE   W06
        BYTE                   Gs3
        BYTE   W06
        BYTE                   Ds3
        BYTE   W06
        BYTE                   Cs3
        BYTE   W12
        BYTE                   Fs2
        BYTE   W06
        BYTE                   Cs3
        BYTE   W06
        BYTE                   Gs3
        BYTE   W06
        BYTE                   Ds3
        BYTE   W06
        BYTE                   Cs3
        BYTE   W06
        BYTE                   Ds3
        BYTE   W06
        BYTE                   Cs3
        BYTE   W06
        BYTE                   Ds3
        BYTE   W06
        BYTE                   Cs3
        BYTE   W06
        BYTE                   Gs2
        BYTE   W06
// 043   ----------------------------------------
        BYTE   PATT
         POIN2  FNO_6_39
// 044   ----------------------------------------
FNO_6_44:
        BYTE           N05     As2   v080
        BYTE   W06
        BYTE                   Cs3
        BYTE   W06
        BYTE                   Gs3
        BYTE   W06
        BYTE                   Ds3
        BYTE   W06
        BYTE                   Cs3
        BYTE   W12
        BYTE                   As2
        BYTE   W06
        BYTE                   Cs3
        BYTE   W06
        BYTE                   Gs3
        BYTE   W06
        BYTE                   Ds3
        BYTE   W06
        BYTE                   Cs3
        BYTE   W12
        BYTE                   Cs3
        BYTE   W06
        BYTE                   Ds3
        BYTE   W06
        BYTE                   Cs3
        BYTE   W06
        BYTE                   Gs2
        BYTE   W06
        BYTE   PEND
// 045   ----------------------------------------
FNO_6_45:
        BYTE   W06
        BYTE           N05     Cs3   v080
        BYTE   W06
        BYTE                   Gs3
        BYTE   W06
        BYTE                   Ds3
        BYTE   W06
        BYTE                   Cs3
        BYTE   W12
        BYTE                   Gs2
        BYTE   W06
        BYTE                   Cs3
        BYTE   W06
        BYTE                   Fn3
        BYTE   W06
        BYTE                   Fs3
        BYTE   W06
        BYTE                   Gs3
        BYTE   W06
        BYTE                   Cs4
        BYTE   W06
        BYTE                   Ds4
        BYTE   W06
        BYTE                   Cn4
        BYTE   W06
        BYTE                   Gs3
        BYTE   W06
        BYTE                   Fs3
        BYTE   W06
        BYTE   PEND
// 046   ----------------------------------------
FNO_6_46:
        BYTE           N05     As2   v080
        BYTE   W06
        BYTE                   Cs3
        BYTE   W06
        BYTE                   Gs3
        BYTE   W06
        BYTE                   Ds3
        BYTE   W06
        BYTE                   Cs3
        BYTE   W12
        BYTE                   As2
        BYTE   W06
        BYTE                   Cs3
        BYTE   W06
        BYTE                   Gs3
        BYTE   W06
        BYTE                   Ds3
        BYTE   W06
        BYTE                   Cs3
        BYTE   W12
        BYTE                   Cs3
        BYTE   W06
        BYTE                   Ds3
        BYTE   W12
        BYTE                   Gs2
        BYTE   W06
        BYTE   PEND
// 047   ----------------------------------------
FNO_6_47:
        BYTE   W12
        BYTE           N05     Gs3   v080
        BYTE   W06
        BYTE                   Ds3
        BYTE   W06
        BYTE                   Cs3
        BYTE   W12
        BYTE           N11     An2
        BYTE   W12
        BYTE                   Fn3
        BYTE   W12
        BYTE                   Fs3
        BYTE   W12
        BYTE                   Fn3
        BYTE   W12
        BYTE                   Ds3
        BYTE   W12
        BYTE   PEND
// 048   ----------------------------------------
        BYTE   PATT
         POIN2  FNO_6_44
// 049   ----------------------------------------
        BYTE   PATT
         POIN2  FNO_6_45
// 050   ----------------------------------------
        BYTE   PATT
         POIN2  FNO_6_46
// 051   ----------------------------------------
        BYTE   PATT
         POIN2  FNO_6_47
// 052   ----------------------------------------
        BYTE   W96
// 053   ----------------------------------------
        BYTE   W96
// 054   ----------------------------------------
        BYTE   W96
// 055   ----------------------------------------
        BYTE   W96
// 056   ----------------------------------------
        BYTE   W96
// 057   ----------------------------------------
        BYTE   W96
// 058   ----------------------------------------
        BYTE   W96
// 059   ----------------------------------------
        BYTE   W96
// 060   ----------------------------------------
        BYTE   W23
        BYTE   GoTo
         POIN2  FNO_6_LOOP
        BYTE   FINE

//***************** Track 7 (Midi-Chn.11) ******************//

FNO_7:
        BYTE   KEYSH   FNO_key+0
// 000   ----------------------------------------
FNO_7_LOOP:
        BYTE           PAN     c_v+2
        BYTE           VOL     19
        BYTE           VOICE   1
        BYTE           BENDR   12
        BYTE   W96
// 001   ----------------------------------------
        BYTE   W96
// 002   ----------------------------------------
        BYTE   W96
// 003   ----------------------------------------
        BYTE   W96
// 004   ----------------------------------------
        BYTE   W96
// 005   ----------------------------------------
        BYTE   W96
// 006   ----------------------------------------
        BYTE   W96
// 007   ----------------------------------------
        BYTE   W96
// 008   ----------------------------------------
FNO_7_8:
        BYTE           N23     Gn0   v120
        BYTE           N23     An2
        BYTE   W96
        BYTE   PEND
// 009   ----------------------------------------
        BYTE   W96
// 010   ----------------------------------------
        BYTE   W96
// 011   ----------------------------------------
        BYTE   W96
// 012   ----------------------------------------
        BYTE   PATT
         POIN2  FNO_7_8
// 013   ----------------------------------------
        BYTE   W96
// 014   ----------------------------------------
        BYTE   W96
// 015   ----------------------------------------
        BYTE   W96
// 016   ----------------------------------------
        BYTE   W96
// 017   ----------------------------------------
        BYTE   W96
// 018   ----------------------------------------
        BYTE   W96
// 019   ----------------------------------------
        BYTE   W96
// 020   ----------------------------------------
        BYTE   PATT
         POIN2  FNO_7_8
// 021   ----------------------------------------
        BYTE   W96
// 022   ----------------------------------------
        BYTE   W96
// 023   ----------------------------------------
        BYTE   W96
// 024   ----------------------------------------
        BYTE   W96
// 025   ----------------------------------------
        BYTE   W96
// 026   ----------------------------------------
        BYTE   W96
// 027   ----------------------------------------
        BYTE   W96
// 028   ----------------------------------------
        BYTE   PATT
         POIN2  FNO_7_8
// 029   ----------------------------------------
        BYTE   W96
// 030   ----------------------------------------
        BYTE   W96
// 031   ----------------------------------------
        BYTE   W96
// 032   ----------------------------------------
        BYTE   W96
// 033   ----------------------------------------
        BYTE   W96
// 034   ----------------------------------------
        BYTE   W96
// 035   ----------------------------------------
        BYTE   W96
// 036   ----------------------------------------
        BYTE   W96
// 037   ----------------------------------------
        BYTE   W96
// 038   ----------------------------------------
        BYTE   W96
// 039   ----------------------------------------
        BYTE   W96
// 040   ----------------------------------------
        BYTE   W96
// 041   ----------------------------------------
        BYTE   W96
// 042   ----------------------------------------
        BYTE   W96
// 043   ----------------------------------------
        BYTE   W96
// 044   ----------------------------------------
        BYTE           N05     Fn4   v055
        BYTE           N05     As2   v080
        BYTE   W06
        BYTE                   Gs4   v055
        BYTE           N05     Cs3   v080
        BYTE   W06
        BYTE                   Cs5   v055
        BYTE           N05     Gs3   v080
        BYTE   W06
        BYTE                   Gs4   v055
        BYTE           N05     Ds3   v080
        BYTE   W06
        BYTE                   Fn4   v055
        BYTE           N05     Cs3   v080
        BYTE   W12
        BYTE                   Fn4   v055
        BYTE           N05     As2   v080
        BYTE   W06
        BYTE                   Gs4   v055
        BYTE           N05     Cs3   v080
        BYTE   W06
        BYTE                   Cs5   v055
        BYTE           N05     Gs3   v080
        BYTE   W06
        BYTE                   Gs4   v055
        BYTE           N05     Ds3   v080
        BYTE   W06
        BYTE                   Fn4   v055
        BYTE           N05     Cs3   v080
        BYTE   W12
        BYTE                   Fn4   v055
        BYTE           N05     Cs3   v080
        BYTE   W06
        BYTE                   Fs4   v055
        BYTE           N05     Ds3   v080
        BYTE   W06
        BYTE                   Fn4   v055
        BYTE           N05     Cs3   v080
        BYTE   W06
        BYTE                   Ds4   v055
        BYTE           N05     Gs2   v080
        BYTE   W06
// 045   ----------------------------------------
        BYTE                   Cn4   v055
        BYTE   W06
        BYTE                   Cs3   v080
        BYTE   W06
        BYTE                   Gs3
        BYTE   W06
        BYTE                   Ds3
        BYTE   W06
        BYTE                   Cs3
        BYTE   W12
        BYTE                   Cn4   v055
        BYTE           N05     Gs2   v080
        BYTE   W06
        BYTE                   Cs3
        BYTE   W06
        BYTE                   Gs4   v055
        BYTE           N05     Fn3   v080
        BYTE   W06
        BYTE                   Fs3
        BYTE   W06
        BYTE                   Gs3
        BYTE   W06
        BYTE                   Cs4
        BYTE   W06
        BYTE                   Cn5   v055
        BYTE           N05     Ds4   v080
        BYTE   W06
        BYTE                   Cn4
        BYTE   W06
        BYTE                   Gs4   v055
        BYTE           N05     Gs3   v080
        BYTE   W06
        BYTE                   Fs4   v055
        BYTE           N05     Fs3   v080
        BYTE   W06
// 046   ----------------------------------------
        BYTE                   Cs5   v055
        BYTE           N05     As2   v080
        BYTE   W06
        BYTE                   Cs5   v055
        BYTE           N05     Cs3   v080
        BYTE   W06
        BYTE                   Cs5   v055
        BYTE           N05     Gs3   v080
        BYTE   W06
        BYTE                   Cs5   v055
        BYTE           N05     Ds3   v080
        BYTE   W06
        BYTE                   Cs5   v055
        BYTE           N05     Cs3   v080
        BYTE   W06
        BYTE                   Cn5   v055
        BYTE   W06
        BYTE                   Cn5
        BYTE           N05     As2   v080
        BYTE   W06
        BYTE                   Cn5   v055
        BYTE           N05     Cs3   v080
        BYTE   W06
        BYTE                   Gs4   v055
        BYTE           N05     Gs3   v080
        BYTE   W06
        BYTE                   Gs4   v055
        BYTE           N05     Ds3   v080
        BYTE   W06
        BYTE                   Fs4   v055
        BYTE           N05     Cs3   v080
        BYTE   W06
        BYTE                   Fs4   v055
        BYTE   W06
        BYTE                   Fn4
        BYTE           N05     Cs3   v080
        BYTE   W06
        BYTE                   Fn4   v055
        BYTE           N05     Ds3   v080
        BYTE   W06
        BYTE                   Fs4   v055
        BYTE   W06
        BYTE                   Fs4
        BYTE           N05     Gs2   v080
        BYTE   W06
// 047   ----------------------------------------
        BYTE                   Gs4   v055
        BYTE   W12
        BYTE                   Gs3   v080
        BYTE   W06
        BYTE                   Ds3
        BYTE   W06
        BYTE                   Cs3
        BYTE   W12
        BYTE                   An4   v055
        BYTE           N11     An2   v080
        BYTE   W12
        BYTE                   Ds5   v055
        BYTE           N11     Fn3   v080
        BYTE   W12
        BYTE                   Fs3
        BYTE   W12
        BYTE                   Fn3
        BYTE   W12
        BYTE           N05     Cs4   v055
        BYTE           N11     Ds3   v080
        BYTE   W06
        BYTE           N05     Cn4   v055
        BYTE   W06
// 048   ----------------------------------------
        BYTE                   Cs4
        BYTE           N05     As2   v080
        BYTE   W06
        BYTE                   Cs3
        BYTE   W06
        BYTE                   Gs3
        BYTE   W06
        BYTE                   Ds3
        BYTE   W06
        BYTE                   Fn4   v055
        BYTE           N05     Cs3   v080
        BYTE   W06
        BYTE                   Fn4   v055
        BYTE   W06
        BYTE                   Fs4
        BYTE           N05     As2   v080
        BYTE   W06
        BYTE                   Fs4   v055
        BYTE           N05     Cs3   v080
        BYTE   W06
        BYTE                   Fs4   v055
        BYTE           N05     Gs3   v080
        BYTE   W06
        BYTE                   Fn4   v055
        BYTE           N05     Ds3   v080
        BYTE   W06
        BYTE                   Cs3
        BYTE   W12
        BYTE                   Cs4   v055
        BYTE           N05     Cs3   v080
        BYTE   W06
        BYTE                   Ds3
        BYTE   W06
        BYTE                   Cn4   v055
        BYTE           N05     Cs3   v080
        BYTE   W06
        BYTE                   Gs2
        BYTE   W06
// 049   ----------------------------------------
        BYTE                   Ds4   v055
        BYTE   W06
        BYTE                   Cs3   v080
        BYTE   W06
        BYTE                   Gs4   v055
        BYTE           N05     Gs3   v080
        BYTE   W06
        BYTE                   Ds3
        BYTE   W06
        BYTE                   Cn5   v055
        BYTE           N05     Cs3   v080
        BYTE   W12
        BYTE                   Cs5   v055
        BYTE           N05     Gs2   v080
        BYTE   W06
        BYTE                   Cs3
        BYTE   W06
        BYTE                   Cn5   v055
        BYTE           N05     Fn3   v080
        BYTE   W06
        BYTE                   Fs3
        BYTE   W06
        BYTE                   Gs4   v055
        BYTE           N05     Gs3   v080
        BYTE   W06
        BYTE                   Cs4
        BYTE   W06
        BYTE                   Fn4   v055
        BYTE           N05     Ds4   v080
        BYTE   W06
        BYTE                   Cn4
        BYTE   W06
        BYTE                   Fs4   v055
        BYTE           N05     Gs3   v080
        BYTE   W06
        BYTE                   Fs3
        BYTE   W06
// 050   ----------------------------------------
        BYTE           N11     Gs4   v055
        BYTE           N05     As2   v080
        BYTE   W06
        BYTE                   Cs3
        BYTE   W06
        BYTE                   Gs3
        BYTE   W06
        BYTE                   Ds3
        BYTE   W06
        BYTE                   Cs3
        BYTE   W12
        BYTE                   As2
        BYTE   W06
        BYTE                   Cs3
        BYTE   W06
        BYTE                   Gs3
        BYTE   W06
        BYTE                   Ds3
        BYTE   W06
        BYTE                   Cs3
        BYTE   W12
        BYTE                   Cs3
        BYTE   W06
        BYTE                   Ds3
        BYTE   W12
        BYTE                   Gs2
        BYTE   W06
// 051   ----------------------------------------
        BYTE   PATT
         POIN2  FNO_6_47
// 052   ----------------------------------------
FNO_7_52:
        BYTE           N32     Gn2   v120   gtp3
        BYTE           N23     Cs3   v070
        BYTE   W24
        BYTE                   Cs3
        BYTE   W12
        BYTE           N11     Gn2   v120
        BYTE   W12
        BYTE           N23     Cs3   v070
        BYTE   W24
        BYTE                   Cs3
        BYTE   W24
        BYTE   PEND
// 053   ----------------------------------------
        BYTE   PATT
         POIN2  FNO_7_52
// 054   ----------------------------------------
        BYTE   PATT
         POIN2  FNO_7_52
// 055   ----------------------------------------
        BYTE   PATT
         POIN2  FNO_7_52
// 056   ----------------------------------------
        BYTE   PATT
         POIN2  FNO_7_52
// 057   ----------------------------------------
        BYTE   PATT
         POIN2  FNO_7_52
// 058   ----------------------------------------
        BYTE   PATT
         POIN2  FNO_7_52
// 059   ----------------------------------------
        BYTE   W96
// 060   ----------------------------------------
        BYTE   W23
        BYTE   GoTo
         POIN2  FNO_7_LOOP
        BYTE   FINE

//***************** Track 8 (Midi-Chn.12) ******************//

FNO_8:
        BYTE   KEYSH   FNO_key+0
// 000   ----------------------------------------
FNO_8_LOOP:
        BYTE           VOL     51
        BYTE           VOICE   1
        BYTE           BENDR   12
        BYTE           N05     As2   v080
        BYTE   W06
        BYTE                   Cs3
        BYTE   W06
        BYTE                   Gs3
        BYTE   W06
        BYTE                   Ds3
        BYTE   W06
        BYTE                   Cs3
        BYTE   W12
        BYTE                   As2
        BYTE   W06
        BYTE                   Cs3
        BYTE   W06
        BYTE                   Gs3
        BYTE   W06
        BYTE                   Ds3
        BYTE   W06
        BYTE                   Cs3
        BYTE   W12
        BYTE                   Cs3
        BYTE   W06
        BYTE                   Ds3
        BYTE   W12
        BYTE                   As2
        BYTE   W06
// 001   ----------------------------------------
        BYTE   PATT
         POIN2  FNO_6_9
// 002   ----------------------------------------
        BYTE   PATT
         POIN2  FNO_6_10
// 003   ----------------------------------------
        BYTE   PATT
         POIN2  FNO_6_11
// 004   ----------------------------------------
        BYTE   PATT
         POIN2  FNO_6_8
// 005   ----------------------------------------
        BYTE   PATT
         POIN2  FNO_6_9
// 006   ----------------------------------------
        BYTE   PATT
         POIN2  FNO_6_10
// 007   ----------------------------------------
        BYTE   PATT
         POIN2  FNO_6_11
// 008   ----------------------------------------
FNO_8_8:
        BYTE           N05     As2   v080
        BYTE   W06
        BYTE                   Cs3
        BYTE   W06
        BYTE                   Gs3
        BYTE   W06
        BYTE                   Ds3
        BYTE   W06
        BYTE           N23     En1
        BYTE           N05     Cs3
        BYTE   W12
        BYTE                   As2
        BYTE   W06
        BYTE                   Cs3
        BYTE   W06
        BYTE                   Gs3
        BYTE   W06
        BYTE                   Ds3
        BYTE   W06
        BYTE                   Cs3
        BYTE   W12
        BYTE           N23     En1
        BYTE           N05     Cs3
        BYTE   W06
        BYTE                   Ds3
        BYTE   W12
        BYTE                   As2
        BYTE   W06
        BYTE   PEND
// 009   ----------------------------------------
FNO_8_9:
        BYTE   W06
        BYTE           N05     Cs3   v080
        BYTE   W06
        BYTE                   Gs3
        BYTE   W06
        BYTE                   Ds3
        BYTE   W06
        BYTE           N23     En1
        BYTE           N05     Cs3
        BYTE   W12
        BYTE                   As2
        BYTE   W06
        BYTE                   Cs3
        BYTE   W06
        BYTE                   Gs3
        BYTE   W06
        BYTE                   Fn3
        BYTE   W06
        BYTE                   Ds3
        BYTE   W12
        BYTE           N23     En1
        BYTE           N23     Cn4
        BYTE   W24
        BYTE   PEND
// 010   ----------------------------------------
FNO_8_10:
        BYTE           N05     As2   v080
        BYTE   W06
        BYTE                   Cs3
        BYTE   W06
        BYTE                   Gs3
        BYTE   W06
        BYTE                   Ds3
        BYTE   W06
        BYTE           N23     En1
        BYTE           N05     Cs3
        BYTE   W12
        BYTE                   As2
        BYTE   W06
        BYTE                   Cs3
        BYTE   W06
        BYTE                   Gs3
        BYTE   W06
        BYTE                   Ds3
        BYTE   W06
        BYTE                   Cs3
        BYTE   W12
        BYTE           N23     En1
        BYTE           N05     Cs3
        BYTE   W06
        BYTE                   Ds3
        BYTE   W12
        BYTE                   Fs2
        BYTE   W06
        BYTE   PEND
// 011   ----------------------------------------
        BYTE   W06
        BYTE                   Cs3
        BYTE   W06
        BYTE                   Gs3
        BYTE   W06
        BYTE                   Fn3
        BYTE   W06
        BYTE           N23     En1
        BYTE           N05     Ds3
        BYTE   W12
        BYTE           N11     Gs2
        BYTE   W12
        BYTE                   Fn3
        BYTE   W12
        BYTE                   Fs3
        BYTE   W12
        BYTE           N23     En1
        BYTE           N23     Ds3
        BYTE   W24
// 012   ----------------------------------------
        BYTE   PATT
         POIN2  FNO_8_8
// 013   ----------------------------------------
        BYTE   PATT
         POIN2  FNO_8_9
// 014   ----------------------------------------
        BYTE   PATT
         POIN2  FNO_8_10
// 015   ----------------------------------------
        BYTE   W06
        BYTE           N05     Cs3   v080
        BYTE   W06
        BYTE                   Gs3
        BYTE   W06
        BYTE                   Fn3
        BYTE   W06
        BYTE           N23     En1
        BYTE           N05     Ds3
        BYTE   W12
        BYTE           N11     Gs2
        BYTE   W12
        BYTE                   Fn3
        BYTE   W12
        BYTE                   Fs3
        BYTE   W12
        BYTE           N23     En1
        BYTE           N11     Ds3
        BYTE   W12
        BYTE           N05     Cs3
        BYTE   W12
// 016   ----------------------------------------
FNO_8_16:
        BYTE           N44     Cs3   v080   gtp3
        BYTE   W24
        BYTE           N23     En1
        BYTE   W48
        BYTE                   En1
        BYTE   W24
        BYTE   PEND
// 017   ----------------------------------------
        BYTE   W24
        BYTE                   En1
        BYTE   W12
        BYTE           N11     Gs2
        BYTE   W12
        BYTE                   Fn3
        BYTE   W12
        BYTE                   Fs3
        BYTE   W12
        BYTE           N23     En1
        BYTE           N11     Ds3
        BYTE   W12
        BYTE           N05     Cs3
        BYTE   W12
// 018   ----------------------------------------
        BYTE   PATT
         POIN2  FNO_8_16
// 019   ----------------------------------------
        BYTE   W24
        BYTE           N23     En1   v080
        BYTE   W72
// 020   ----------------------------------------
FNO_8_20:
        BYTE   W24
        BYTE           N23     En1   v080
        BYTE   W48
        BYTE                   En1
        BYTE   W24
        BYTE   PEND
// 021   ----------------------------------------
        BYTE   PATT
         POIN2  FNO_8_20
// 022   ----------------------------------------
        BYTE   PATT
         POIN2  FNO_8_20
// 023   ----------------------------------------
        BYTE   PATT
         POIN2  FNO_8_20
// 024   ----------------------------------------
        BYTE   PATT
         POIN2  FNO_8_20
// 025   ----------------------------------------
        BYTE   PATT
         POIN2  FNO_8_20
// 026   ----------------------------------------
        BYTE   PATT
         POIN2  FNO_8_20
// 027   ----------------------------------------
        BYTE   PATT
         POIN2  FNO_8_20
// 028   ----------------------------------------
        BYTE   PATT
         POIN2  FNO_8_20
// 029   ----------------------------------------
        BYTE   PATT
         POIN2  FNO_8_20
// 030   ----------------------------------------
        BYTE   PATT
         POIN2  FNO_8_20
// 031   ----------------------------------------
        BYTE   PATT
         POIN2  FNO_8_20
// 032   ----------------------------------------
        BYTE   PATT
         POIN2  FNO_8_20
// 033   ----------------------------------------
        BYTE   PATT
         POIN2  FNO_8_20
// 034   ----------------------------------------
        BYTE   PATT
         POIN2  FNO_8_20
// 035   ----------------------------------------
        BYTE   PATT
         POIN2  FNO_8_20
// 036   ----------------------------------------
        BYTE   PATT
         POIN2  FNO_8_20
// 037   ----------------------------------------
        BYTE   PATT
         POIN2  FNO_8_20
// 038   ----------------------------------------
        BYTE   PATT
         POIN2  FNO_8_20
// 039   ----------------------------------------
        BYTE   PATT
         POIN2  FNO_8_20
// 040   ----------------------------------------
        BYTE   PATT
         POIN2  FNO_8_20
// 041   ----------------------------------------
        BYTE   PATT
         POIN2  FNO_8_20
// 042   ----------------------------------------
        BYTE   PATT
         POIN2  FNO_8_20
// 043   ----------------------------------------
        BYTE   PATT
         POIN2  FNO_8_20
// 044   ----------------------------------------
        BYTE   PATT
         POIN2  FNO_8_20
// 045   ----------------------------------------
        BYTE   PATT
         POIN2  FNO_8_20
// 046   ----------------------------------------
        BYTE   PATT
         POIN2  FNO_8_20
// 047   ----------------------------------------
        BYTE   PATT
         POIN2  FNO_8_20
// 048   ----------------------------------------
        BYTE   PATT
         POIN2  FNO_8_20
// 049   ----------------------------------------
        BYTE   PATT
         POIN2  FNO_8_20
// 050   ----------------------------------------
        BYTE   PATT
         POIN2  FNO_8_20
// 051   ----------------------------------------
        BYTE   PATT
         POIN2  FNO_8_20
// 052   ----------------------------------------
        BYTE   W96
// 053   ----------------------------------------
        BYTE   W96
// 054   ----------------------------------------
        BYTE   W96
// 055   ----------------------------------------
        BYTE   W96
// 056   ----------------------------------------
        BYTE   W96
// 057   ----------------------------------------
        BYTE   W96
// 058   ----------------------------------------
        BYTE   W96
// 059   ----------------------------------------
        BYTE   W96
// 060   ----------------------------------------
        BYTE   W23
        BYTE   GoTo
         POIN2  FNO_8_LOOP
        BYTE   FINE

//***************** Track 9 (Midi-Chn.13) ******************//

FNO_9:
        BYTE   KEYSH   FNO_key+0
// 000   ----------------------------------------
FNO_9_LOOP:
        BYTE           VOL     32
        BYTE           VOICE   0
        BYTE           BENDR   12
        BYTE   W96
// 001   ----------------------------------------
        BYTE   W96
// 002   ----------------------------------------
        BYTE   W96
// 003   ----------------------------------------
        BYTE   W96
// 004   ----------------------------------------
        BYTE   W96
// 005   ----------------------------------------
        BYTE   W96
// 006   ----------------------------------------
        BYTE   W96
// 007   ----------------------------------------
        BYTE   W96
// 008   ----------------------------------------
FNO_9_8:
        BYTE           N05     As3   v064
        BYTE           N05     Cs3
        BYTE   W06
        BYTE                   En1   v055
        BYTE           N05     Cs4   v064
        BYTE           N05     Fn3
        BYTE   W06
        BYTE                   En1   v075
        BYTE           N05     Gs4   v064
        BYTE           N05     Gs3
        BYTE   W06
        BYTE                   En1   v055
        BYTE           N05     Ds4   v064
        BYTE           N05     Ds3
        BYTE   W06
        BYTE                   Cs4
        BYTE           N05     Fn3
        BYTE   W06
        BYTE                   Gs3
        BYTE   W06
        BYTE                   En1   v055
        BYTE           N05     As3   v064
        BYTE           N05     As2
        BYTE   W06
        BYTE                   En1   v075
        BYTE           N05     Cs4   v064
        BYTE           N05     Fn3
        BYTE   W06
        BYTE                   Gs4
        BYTE           N05     Gs3
        BYTE   W06
        BYTE                   En1   v055
        BYTE           N05     Ds4   v064
        BYTE           N05     Ds3
        BYTE   W06
        BYTE                   En1   v075
        BYTE           N05     Cs4   v064
        BYTE           N05     Fn3
        BYTE   W06
        BYTE                   En1   v055
        BYTE   W06
        BYTE                   Cs4   v064
        BYTE           N05     As3
        BYTE   W06
        BYTE                   Ds4
        BYTE           N05     Fn3
        BYTE   W06
        BYTE                   En1   v075
        BYTE           N05     Cs4   v064
        BYTE           N05     Gs3
        BYTE   W06
        BYTE                   En1   v055
        BYTE           N05     As3   v064
        BYTE           N05     Fn3
        BYTE   W06
        BYTE   PEND
// 009   ----------------------------------------
FNO_9_9:
        BYTE           N05     En1   v075
        BYTE   W06
        BYTE                   En1   v055
        BYTE           N05     Cs4   v064
        BYTE           N05     Fn3
        BYTE   W06
        BYTE                   En1   v075
        BYTE           N05     Gs4   v064
        BYTE           N05     Ds3
        BYTE   W06
        BYTE                   En1   v055
        BYTE           N05     Ds4   v064
        BYTE           N05     Cs3
        BYTE   W06
        BYTE                   Cs4
        BYTE           N05     Fn3
        BYTE   W12
        BYTE                   En1   v055
        BYTE           N05     As3   v064
        BYTE           N05     As2
        BYTE   W06
        BYTE                   En1   v075
        BYTE           N05     Cs4   v064
        BYTE           N05     Cs3
        BYTE   W06
        BYTE                   Gs4
        BYTE           N05     Cn4
        BYTE   W06
        BYTE                   En1   v055
        BYTE           N05     Fn4   v064
        BYTE           N05     As3
        BYTE   W06
        BYTE                   En1   v075
        BYTE           N05     Ds4   v064
        BYTE           N05     Gs3
        BYTE   W06
        BYTE                   En1   v055
        BYTE           N05     Fn4   v064
        BYTE           N05     As3
        BYTE   W06
        BYTE           N23     Cn5
        BYTE           N23     Ds4
        BYTE   W12
        BYTE           N05     En1   v075
        BYTE   W06
        BYTE                   En1   v055
        BYTE   W06
        BYTE   PEND
// 010   ----------------------------------------
FNO_9_10:
        BYTE           N05     En1   v075
        BYTE           N05     As3   v064
        BYTE           N05     Cs3
        BYTE   W06
        BYTE                   En1   v055
        BYTE           N05     Cs4   v064
        BYTE           N05     Fn3
        BYTE   W06
        BYTE                   En1   v075
        BYTE           N05     Gs4   v064
        BYTE           N05     Gs3
        BYTE   W06
        BYTE                   En1   v055
        BYTE           N05     Ds4   v064
        BYTE           N05     Ds3
        BYTE   W06
        BYTE                   Cs4
        BYTE           N05     Fn3
        BYTE   W06
        BYTE                   Gs3
        BYTE   W06
        BYTE                   En1   v055
        BYTE           N05     As3   v064
        BYTE           N05     As2
        BYTE   W06
        BYTE                   En1   v075
        BYTE           N05     Cs4   v064
        BYTE           N05     Fn3
        BYTE   W06
        BYTE                   Gs4
        BYTE           N05     Gs3
        BYTE   W06
        BYTE                   En1   v055
        BYTE           N05     Ds4   v064
        BYTE           N05     Ds3
        BYTE   W06
        BYTE                   En1   v075
        BYTE           N05     Cs4   v064
        BYTE           N05     Fn3
        BYTE   W06
        BYTE                   En1   v055
        BYTE   W06
        BYTE                   Cs4   v064
        BYTE           N05     As3
        BYTE   W06
        BYTE                   Ds4
        BYTE           N05     Fn3
        BYTE   W06
        BYTE                   En1   v075
        BYTE           N05     Gs3   v064
        BYTE   W06
        BYTE                   En1   v055
        BYTE           N05     Fs3   v064
        BYTE   W06
        BYTE   PEND
// 011   ----------------------------------------
        BYTE                   En1   v075
        BYTE   W06
        BYTE                   En1   v055
        BYTE           N05     Cs4   v064
        BYTE           N05     Fn3
        BYTE   W06
        BYTE                   En1   v075
        BYTE           N05     Gs4   v064
        BYTE           N05     Ds3
        BYTE   W06
        BYTE                   En1   v055
        BYTE           N05     Fn4   v064
        BYTE           N05     Fn3
        BYTE   W06
        BYTE                   Ds4
        BYTE           N05     As3
        BYTE   W06
        BYTE                   Fn4
        BYTE           N05     Fn3
        BYTE   W06
        BYTE                   En1   v055
        BYTE           N01     Gs3   v064
        BYTE           N11
        BYTE   W06
        BYTE           N05     En1   v075
        BYTE           N05     Fn3   v064
        BYTE   W06
        BYTE           N11     Fn4
        BYTE           N11     Cs3
        BYTE   W06
        BYTE           N05     En1   v055
        BYTE   W06
        BYTE                   En1   v075
        BYTE           N11     Fs4   v064
        BYTE           N11     Ds3
        BYTE   W06
        BYTE           N05     En1   v055
        BYTE   W06
        BYTE           N23     Ds4   v064
        BYTE           N23     Cn3
        BYTE   W12
        BYTE           N05     En1   v075
        BYTE   W06
        BYTE                   En1   v055
        BYTE   W06
// 012   ----------------------------------------
        BYTE   PATT
         POIN2  FNO_9_8
// 013   ----------------------------------------
        BYTE   PATT
         POIN2  FNO_9_9
// 014   ----------------------------------------
        BYTE   PATT
         POIN2  FNO_9_10
// 015   ----------------------------------------
        BYTE           N05     En1   v075
        BYTE   W06
        BYTE                   En1   v055
        BYTE           N05     Cs4   v064
        BYTE           N05     Fn3
        BYTE   W06
        BYTE                   En1   v075
        BYTE           N05     Gs4   v064
        BYTE           N05     Ds3
        BYTE   W06
        BYTE                   En1   v055
        BYTE           N05     Fn4   v064
        BYTE           N05     Fn3
        BYTE   W06
        BYTE                   Ds4
        BYTE           N05     As3
        BYTE   W06
        BYTE                   Fn4
        BYTE           N05     Fn3
        BYTE   W06
        BYTE                   En1   v055
        BYTE           N01     Gs3   v064
        BYTE           N11
        BYTE   W06
        BYTE           N05     En1   v075
        BYTE           N05     Fn3   v064
        BYTE   W06
        BYTE           N11     Fn4
        BYTE           N11     Cs3
        BYTE   W06
        BYTE           N05     En1   v055
        BYTE   W06
        BYTE                   En1   v075
        BYTE           N11     Fs4   v064
        BYTE           N11     Ds3
        BYTE   W06
        BYTE           N05     En1   v055
        BYTE   W06
        BYTE           N11     Ds4   v064
        BYTE           N11     Cn3
        BYTE   W12
        BYTE           N05     En1   v075
        BYTE           N05     Cs4   v064
        BYTE           N05     As2
        BYTE   W06
        BYTE                   En1   v055
        BYTE   W06
// 016   ----------------------------------------
FNO_9_16:
        BYTE           N05     En1   v075
        BYTE           N44     Cs4   v064   gtp3
        BYTE                   As2
        BYTE   W06
        BYTE           N05     En1   v055
        BYTE   W06
        BYTE                   En1   v075
        BYTE   W06
        BYTE                   En1   v055
        BYTE   W18
        BYTE                   En1
        BYTE   W06
        BYTE                   En1   v075
        BYTE   W12
        BYTE                   En1   v055
        BYTE   W06
        BYTE                   En1   v075
        BYTE   W06
        BYTE                   En1   v055
        BYTE   W18
        BYTE                   En1   v075
        BYTE   W06
        BYTE                   En1   v055
        BYTE   W06
        BYTE   PEND
// 017   ----------------------------------------
        BYTE                   En1   v075
        BYTE   W06
        BYTE                   En1   v055
        BYTE   W06
        BYTE                   En1   v075
        BYTE   W06
        BYTE                   En1   v055
        BYTE   W18
        BYTE                   En1
        BYTE           N11     Gs3   v064
        BYTE           N11     Fn2
        BYTE   W06
        BYTE           N05     En1   v075
        BYTE   W06
        BYTE           N11     Fn4   v064
        BYTE           N11     Cs3
        BYTE   W06
        BYTE           N05     En1   v055
        BYTE   W06
        BYTE                   En1   v075
        BYTE           N11     Fs4   v064
        BYTE           N11     Ds3
        BYTE   W06
        BYTE           N05     En1   v055
        BYTE   W06
        BYTE           N11     Ds4   v064
        BYTE           N11     Cn3
        BYTE   W12
        BYTE           N05     En1   v075
        BYTE           N05     Cs4   v064
        BYTE           N05     As2
        BYTE   W06
        BYTE                   En1   v055
        BYTE   W06
// 018   ----------------------------------------
        BYTE   PATT
         POIN2  FNO_9_16
// 019   ----------------------------------------
        BYTE           N05     En1   v075
        BYTE   W06
        BYTE                   En1   v055
        BYTE   W06
        BYTE                   En1   v075
        BYTE   W06
        BYTE                   En1   v055
        BYTE   W18
        BYTE                   En1
        BYTE           N11     Cs3   v064
        BYTE   W06
        BYTE           N05     En1   v075
        BYTE   W06
        BYTE           N11     Gs3   v064
        BYTE   W12
        BYTE                   As3
        BYTE   W12
        BYTE           N23     Gs3
        BYTE   W24
// 020   ----------------------------------------
        BYTE   PATT
         POIN2  FNO_9_8
// 021   ----------------------------------------
        BYTE   PATT
         POIN2  FNO_9_9
// 022   ----------------------------------------
FNO_9_22:
        BYTE           N05     En1   v075
        BYTE           N05     As3   v064
        BYTE           N05     Cs3
        BYTE   W06
        BYTE                   En1   v055
        BYTE           N05     Cs4   v064
        BYTE           N05     Fn3
        BYTE   W06
        BYTE                   En1   v075
        BYTE           N05     Gs4   v064
        BYTE           N05     Gs3
        BYTE   W06
        BYTE                   En1   v055
        BYTE           N05     Ds4   v064
        BYTE           N05     Ds3
        BYTE   W06
        BYTE                   Cs4
        BYTE           N05     Fn3
        BYTE   W06
        BYTE                   Gs3
        BYTE   W06
        BYTE                   En1   v055
        BYTE           N05     As3   v064
        BYTE           N05     As2
        BYTE   W06
        BYTE                   En1   v075
        BYTE           N05     Cs4   v064
        BYTE           N05     Fn3
        BYTE   W06
        BYTE                   Gs4
        BYTE           N05     Gs3
        BYTE   W06
        BYTE                   En1   v055
        BYTE           N05     Ds4   v064
        BYTE           N05     Ds3
        BYTE   W06
        BYTE                   En1   v075
        BYTE           N05     Cs4   v064
        BYTE           N05     Fn3
        BYTE   W06
        BYTE                   En1   v055
        BYTE   W06
        BYTE                   Cs4   v064
        BYTE           N05     As3
        BYTE   W06
        BYTE                   Ds4
        BYTE           N05     Fn3
        BYTE   W06
        BYTE                   En1   v075
        BYTE           N05     Cs4   v064
        BYTE           N05     Gs3
        BYTE   W06
        BYTE                   En1   v055
        BYTE           N05     As3   v064
        BYTE   W06
        BYTE   PEND
// 023   ----------------------------------------
FNO_9_23:
        BYTE           N05     En1   v075
        BYTE           N05     As3   v064
        BYTE   W06
        BYTE                   En1   v055
        BYTE           N05     Cs4   v064
        BYTE           N05     Fn3
        BYTE   W06
        BYTE                   En1   v075
        BYTE           N05     Gs4   v064
        BYTE           N05     Ds3
        BYTE   W06
        BYTE                   En1   v055
        BYTE           N05     Fn4   v064
        BYTE           N05     Fn3
        BYTE   W06
        BYTE                   Ds4
        BYTE           N05     As3
        BYTE   W06
        BYTE                   Fn4
        BYTE           N05     Fn3
        BYTE   W06
        BYTE                   En1   v055
        BYTE           N01     Gs3   v064
        BYTE           N11
        BYTE   W06
        BYTE           N05     En1   v075
        BYTE           N05     Fn3   v064
        BYTE   W06
        BYTE           N11     Fn4
        BYTE           N11     Cs3
        BYTE   W06
        BYTE           N05     En1   v055
        BYTE   W06
        BYTE                   En1   v075
        BYTE           N11     Fs4   v064
        BYTE           N11     Ds3
        BYTE   W06
        BYTE           N05     En1   v055
        BYTE   W06
        BYTE           N23     Ds4   v064
        BYTE           N23     Cn3
        BYTE   W12
        BYTE           N05     En1   v075
        BYTE   W06
        BYTE                   En1   v055
        BYTE   W06
        BYTE   PEND
// 024   ----------------------------------------
FNO_9_24:
        BYTE           N05     En1   v075
        BYTE           N05     Fs2   v064
        BYTE   W06
        BYTE                   En1   v055
        BYTE           N05     Cs4   v064
        BYTE           N05     Cs3
        BYTE   W06
        BYTE                   En1   v075
        BYTE           N05     Gs4   v064
        BYTE           N05     Gs3
        BYTE   W06
        BYTE                   En1   v055
        BYTE           N05     Fn4   v064
        BYTE           N05     Ds3
        BYTE   W06
        BYTE                   Ds4
        BYTE           N05     Cs3
        BYTE   W06
        BYTE                   Fn4
        BYTE   W06
        BYTE                   En1   v055
        BYTE           N05     Ds4   v064
        BYTE           N05     Fs2
        BYTE   W06
        BYTE                   En1   v075
        BYTE           N05     Cs4   v064
        BYTE           N05     Cs3
        BYTE   W06
        BYTE                   Gs4
        BYTE           N05     Gs3
        BYTE   W06
        BYTE                   En1   v055
        BYTE           N05     Ds4   v064
        BYTE           N05     Ds3
        BYTE   W06
        BYTE                   En1   v075
        BYTE           N05     Cs4   v064
        BYTE           N05     Cs3
        BYTE   W06
        BYTE                   En1   v055
        BYTE           N05     Ds4   v064
        BYTE   W06
        BYTE                   Cs4
        BYTE           N05     Cs3
        BYTE   W06
        BYTE                   Ds4
        BYTE           N05     Ds3
        BYTE   W06
        BYTE                   En1   v075
        BYTE           N05     Cs4   v064
        BYTE           N05     Cs3
        BYTE   W06
        BYTE                   En1   v055
        BYTE           N05     Gs3   v064
        BYTE           N05     Gs2
        BYTE   W06
        BYTE   PEND
// 025   ----------------------------------------
FNO_9_25:
        BYTE           N05     En1   v075
        BYTE           N05     Gs2   v064
        BYTE   W06
        BYTE                   En1   v055
        BYTE           N05     Cs4   v064
        BYTE           N05     Cs3
        BYTE   W06
        BYTE                   En1   v075
        BYTE           N05     Gs4   v064
        BYTE           N05     Gs3
        BYTE   W06
        BYTE                   En1   v055
        BYTE           N05     Ds4   v064
        BYTE           N05     Ds3
        BYTE   W06
        BYTE                   Cs4
        BYTE           N05     Cs3
        BYTE   W06
        BYTE                   Ds4
        BYTE   W06
        BYTE                   En1   v055
        BYTE           N05     Cs4   v064
        BYTE           N05     Gs2
        BYTE   W06
        BYTE                   En1   v075
        BYTE           N05     Gs3   v064
        BYTE   W06
        BYTE                   Cs5
        BYTE           N05     Cs4
        BYTE   W06
        BYTE                   En1   v055
        BYTE           N05     Cn5   v064
        BYTE           N05     Cn4
        BYTE   W06
        BYTE                   En1   v075
        BYTE           N05     As4   v064
        BYTE           N05     As3
        BYTE   W06
        BYTE                   En1   v055
        BYTE           N05     Fn4   v064
        BYTE           N05     Fn3
        BYTE   W06
        BYTE                   Ds4
        BYTE           N05     Ds3
        BYTE   W06
        BYTE                   Fn4
        BYTE           N05     Fn3
        BYTE   W06
        BYTE                   En1   v075
        BYTE           N05     Ds4   v064
        BYTE           N05     Ds3
        BYTE   W06
        BYTE                   En1   v055
        BYTE           N05     Cs4   v064
        BYTE           N05     Cs3
        BYTE   W06
        BYTE   PEND
// 026   ----------------------------------------
        BYTE   PATT
         POIN2  FNO_9_10
// 027   ----------------------------------------
FNO_9_27:
        BYTE           N05     En1   v075
        BYTE   W06
        BYTE                   En1   v055
        BYTE           N05     Cs4   v064
        BYTE           N05     Fn3
        BYTE   W06
        BYTE                   En1   v075
        BYTE           N05     Gs4   v064
        BYTE           N05     Ds3
        BYTE   W06
        BYTE                   En1   v055
        BYTE           N05     Fn4   v064
        BYTE           N05     Fn3
        BYTE   W06
        BYTE                   Ds4
        BYTE           N05     As3
        BYTE   W06
        BYTE                   Fn3
        BYTE   W06
        BYTE                   En1   v055
        BYTE           N01     Gs3   v064
        BYTE           N11
        BYTE   W06
        BYTE           N05     En1   v075
        BYTE           N05     Fn3   v064
        BYTE   W06
        BYTE           N11     Fn4
        BYTE           N11     Cs3
        BYTE   W06
        BYTE           N05     En1   v055
        BYTE   W06
        BYTE                   En1   v075
        BYTE           N11     Fs4   v064
        BYTE           N11     Ds3
        BYTE   W06
        BYTE           N05     En1   v055
        BYTE   W06
        BYTE           N23     Ds4   v064
        BYTE           N23     Cn3
        BYTE   W12
        BYTE           N05     En1   v075
        BYTE   W06
        BYTE                   En1   v055
        BYTE   W06
        BYTE   PEND
// 028   ----------------------------------------
        BYTE   PATT
         POIN2  FNO_9_8
// 029   ----------------------------------------
        BYTE   PATT
         POIN2  FNO_9_9
// 030   ----------------------------------------
        BYTE   PATT
         POIN2  FNO_9_22
// 031   ----------------------------------------
        BYTE   PATT
         POIN2  FNO_9_23
// 032   ----------------------------------------
        BYTE   PATT
         POIN2  FNO_9_24
// 033   ----------------------------------------
        BYTE   PATT
         POIN2  FNO_9_25
// 034   ----------------------------------------
        BYTE   PATT
         POIN2  FNO_9_10
// 035   ----------------------------------------
        BYTE   PATT
         POIN2  FNO_9_27
// 036   ----------------------------------------
FNO_9_36:
        BYTE           N05     En1   v075
        BYTE   W06
        BYTE                   En1   v055
        BYTE   W06
        BYTE                   En1   v075
        BYTE   W06
        BYTE                   En1   v055
        BYTE   W18
        BYTE                   En1
        BYTE   W06
        BYTE                   En1   v075
        BYTE   W12
        BYTE                   En1   v055
        BYTE   W06
        BYTE                   En1   v075
        BYTE   W06
        BYTE                   En1   v055
        BYTE   W18
        BYTE                   En1   v075
        BYTE   W06
        BYTE                   En1   v055
        BYTE   W06
        BYTE   PEND
// 037   ----------------------------------------
        BYTE   PATT
         POIN2  FNO_9_36
// 038   ----------------------------------------
        BYTE   PATT
         POIN2  FNO_9_36
// 039   ----------------------------------------
        BYTE   PATT
         POIN2  FNO_9_36
// 040   ----------------------------------------
        BYTE   PATT
         POIN2  FNO_9_36
// 041   ----------------------------------------
        BYTE   PATT
         POIN2  FNO_9_36
// 042   ----------------------------------------
        BYTE   PATT
         POIN2  FNO_9_36
// 043   ----------------------------------------
        BYTE   PATT
         POIN2  FNO_9_36
// 044   ----------------------------------------
        BYTE           N05     En1   v075
        BYTE           N05     Fn4   v064
        BYTE           N05     As2
        BYTE   W06
        BYTE                   En1   v055
        BYTE           N05     Gs4   v064
        BYTE           N05     Cs3
        BYTE   W06
        BYTE                   En1   v075
        BYTE           N05     Cs5   v064
        BYTE           N05     Gs3
        BYTE   W06
        BYTE                   En1   v055
        BYTE           N05     Gs4   v064
        BYTE           N05     Ds3
        BYTE   W06
        BYTE                   Fn4
        BYTE           N05     Cs3
        BYTE   W12
        BYTE                   En1   v055
        BYTE           N05     Fn4   v064
        BYTE           N05     As2
        BYTE   W06
        BYTE                   En1   v075
        BYTE           N05     Gs4   v064
        BYTE           N05     Cs3
        BYTE   W06
        BYTE                   Cs5
        BYTE           N05     Gs3
        BYTE   W06
        BYTE                   En1   v055
        BYTE           N05     Gs4   v064
        BYTE           N05     Ds3
        BYTE   W06
        BYTE                   En1   v075
        BYTE           N05     Fn4   v064
        BYTE           N05     Cs3
        BYTE   W06
        BYTE                   En1   v055
        BYTE   W06
        BYTE                   Fn4   v064
        BYTE           N05     Cs3
        BYTE   W06
        BYTE                   Fs4
        BYTE           N05     Ds3
        BYTE   W06
        BYTE                   En1   v075
        BYTE           N05     Fn4   v064
        BYTE           N05     Cs3
        BYTE   W06
        BYTE                   En1   v055
        BYTE           N05     Ds4   v064
        BYTE           N05     Gs2
        BYTE   W06
// 045   ----------------------------------------
        BYTE                   En1   v075
        BYTE           N05     Cn4   v064
        BYTE   W06
        BYTE                   En1   v055
        BYTE           N05     Cs3   v064
        BYTE   W06
        BYTE                   En1   v075
        BYTE           N05     Gs3   v064
        BYTE   W06
        BYTE                   En1   v055
        BYTE           N05     Ds3   v064
        BYTE   W06
        BYTE                   Cs3
        BYTE   W12
        BYTE                   En1   v055
        BYTE           N05     Cn4   v064
        BYTE           N05     Gs2
        BYTE   W06
        BYTE                   En1   v075
        BYTE           N05     Cs3   v064
        BYTE   W06
        BYTE                   Gs4
        BYTE           N05     Fn3
        BYTE   W06
        BYTE                   En1   v055
        BYTE           N05     Fs3   v064
        BYTE   W06
        BYTE                   En1   v075
        BYTE           N05     Gs3   v064
        BYTE   W06
        BYTE                   En1   v055
        BYTE           N05     Cs4   v064
        BYTE   W06
        BYTE                   Cn5
        BYTE           N05     Ds4
        BYTE   W06
        BYTE                   Cn4
        BYTE   W06
        BYTE                   En1   v075
        BYTE           N05     Gs4   v064
        BYTE           N05     Gs3
        BYTE   W06
        BYTE                   En1   v055
        BYTE           N05     Fs4   v064
        BYTE           N05     Fs3
        BYTE   W06
// 046   ----------------------------------------
        BYTE                   En1   v075
        BYTE           N05     Cs5   v064
        BYTE           N05     As2
        BYTE   W06
        BYTE                   En1   v055
        BYTE           N05     Cs5   v064
        BYTE           N05     Cs3
        BYTE   W06
        BYTE                   En1   v075
        BYTE           N05     Cs5   v064
        BYTE           N05     Gs3
        BYTE   W06
        BYTE                   En1   v055
        BYTE           N05     Cs5   v064
        BYTE           N05     Ds3
        BYTE   W06
        BYTE                   Cs5
        BYTE           N05     Cs3
        BYTE   W06
        BYTE                   Cn5
        BYTE   W06
        BYTE                   En1   v055
        BYTE           N05     Cn5   v064
        BYTE           N05     As2
        BYTE   W06
        BYTE                   En1   v075
        BYTE           N05     Cn5   v064
        BYTE           N05     Cs3
        BYTE   W06
        BYTE                   Gs4
        BYTE           N05     Gs3
        BYTE   W06
        BYTE                   En1   v055
        BYTE           N05     Gs4   v064
        BYTE           N05     Ds3
        BYTE   W06
        BYTE                   En1   v075
        BYTE           N05     Fs4   v064
        BYTE           N05     Cs3
        BYTE   W06
        BYTE                   En1   v055
        BYTE           N05     Fs4   v064
        BYTE   W06
        BYTE                   Fn4
        BYTE           N05     Cs3
        BYTE   W06
        BYTE                   Fn4
        BYTE           N05     Ds3
        BYTE   W06
        BYTE                   En1   v075
        BYTE           N05     Fs4   v064
        BYTE   W06
        BYTE                   En1   v055
        BYTE           N05     Fs4   v064
        BYTE           N05     Gs2
        BYTE   W06
// 047   ----------------------------------------
        BYTE                   En1   v075
        BYTE           N05     Gs4   v064
        BYTE   W06
        BYTE                   En1   v055
        BYTE   W06
        BYTE                   En1   v075
        BYTE           N05     Gs3   v064
        BYTE   W06
        BYTE                   En1   v055
        BYTE           N05     Ds3   v064
        BYTE   W06
        BYTE                   Cs3
        BYTE   W12
        BYTE                   En1   v055
        BYTE           N05     An4   v064
        BYTE           N11     An2
        BYTE   W06
        BYTE           N05     En1   v075
        BYTE   W06
        BYTE           N11     Ds5   v064
        BYTE           N11     Fn3
        BYTE   W06
        BYTE           N05     En1   v055
        BYTE   W06
        BYTE                   En1   v075
        BYTE           N11     Fs3   v064
        BYTE   W06
        BYTE           N05     En1   v055
        BYTE   W06
        BYTE           N11     Fn3   v064
        BYTE   W12
        BYTE           N05     En1   v075
        BYTE           N05     Cs4   v064
        BYTE           N11     Ds3
        BYTE   W06
        BYTE           N05     En1   v055
        BYTE           N05     Cn4   v064
        BYTE   W06
// 048   ----------------------------------------
        BYTE                   En1   v075
        BYTE           N05     Cs4   v064
        BYTE           N05     As2
        BYTE   W06
        BYTE                   En1   v055
        BYTE           N05     Cs3   v064
        BYTE   W06
        BYTE                   En1   v075
        BYTE           N05     Gs3   v064
        BYTE   W06
        BYTE                   En1   v055
        BYTE           N05     Ds3   v064
        BYTE   W06
        BYTE                   Fn4
        BYTE           N05     Cs3
        BYTE   W06
        BYTE                   Fn4
        BYTE   W06
        BYTE                   En1   v055
        BYTE           N05     Fs4   v064
        BYTE           N05     As2
        BYTE   W06
        BYTE                   En1   v075
        BYTE           N05     Fs4   v064
        BYTE           N05     Cs3
        BYTE   W06
        BYTE                   Fs4
        BYTE           N05     Gs3
        BYTE   W06
        BYTE                   En1   v055
        BYTE           N05     Fn4   v064
        BYTE           N05     Ds3
        BYTE   W06
        BYTE                   En1   v075
        BYTE           N05     Cs3   v064
        BYTE   W06
        BYTE                   En1   v055
        BYTE   W06
        BYTE                   Cs4   v064
        BYTE           N05     Cs3
        BYTE   W06
        BYTE                   Ds3
        BYTE   W06
        BYTE                   En1   v075
        BYTE           N05     Cn4   v064
        BYTE           N05     Cs3
        BYTE   W06
        BYTE                   En1   v055
        BYTE           N05     Gs2   v064
        BYTE   W06
// 049   ----------------------------------------
        BYTE                   En1   v075
        BYTE           N05     Ds4   v064
        BYTE   W06
        BYTE                   En1   v055
        BYTE           N05     Cs3   v064
        BYTE   W06
        BYTE                   En1   v075
        BYTE           N05     Gs4   v064
        BYTE           N05     Gs3
        BYTE   W06
        BYTE                   En1   v055
        BYTE           N05     Ds3   v064
        BYTE   W06
        BYTE                   Cn5
        BYTE           N05     Cs3
        BYTE   W12
        BYTE                   En1   v055
        BYTE           N05     Cs5   v064
        BYTE           N05     Gs2
        BYTE   W06
        BYTE                   En1   v075
        BYTE           N05     Cs3   v064
        BYTE   W06
        BYTE                   Cn5
        BYTE           N05     Fn3
        BYTE   W06
        BYTE                   En1   v055
        BYTE           N05     Fs3   v064
        BYTE   W06
        BYTE                   En1   v075
        BYTE           N05     Gs4   v064
        BYTE           N05     Gs3
        BYTE   W06
        BYTE                   En1   v055
        BYTE           N05     Cs4   v064
        BYTE   W06
        BYTE                   Fn4
        BYTE           N05     Ds4
        BYTE   W06
        BYTE                   Cn4
        BYTE   W06
        BYTE                   En1   v075
        BYTE           N05     Fs4   v064
        BYTE           N05     Gs3
        BYTE   W06
        BYTE                   En1   v055
        BYTE           N05     Fs3   v064
        BYTE   W06
// 050   ----------------------------------------
        BYTE                   En1   v075
        BYTE           N11     Gs4   v064
        BYTE           N05     As2
        BYTE   W06
        BYTE                   En1   v055
        BYTE           N05     Cs3   v064
        BYTE   W06
        BYTE                   En1   v075
        BYTE           N05     Gs3   v064
        BYTE   W06
        BYTE                   En1   v055
        BYTE           N05     Ds3   v064
        BYTE   W06
        BYTE                   Cs3
        BYTE   W12
        BYTE                   En1   v055
        BYTE           N05     As2   v064
        BYTE   W06
        BYTE                   En1   v075
        BYTE           N05     Cs3   v064
        BYTE   W06
        BYTE                   Gs3
        BYTE   W06
        BYTE                   En1   v055
        BYTE           N05     Ds3   v064
        BYTE   W06
        BYTE                   En1   v075
        BYTE           N05     Cs3   v064
        BYTE   W06
        BYTE                   En1   v055
        BYTE   W06
        BYTE                   Cs3   v064
        BYTE   W06
        BYTE                   Ds3
        BYTE   W06
        BYTE                   En1   v075
        BYTE   W06
        BYTE                   En1   v055
        BYTE           N05     Gs2   v064
        BYTE   W06
// 051   ----------------------------------------
        BYTE                   En1   v075
        BYTE   W06
        BYTE                   En1   v055
        BYTE   W06
        BYTE                   En1   v075
        BYTE           N05     Gs3   v064
        BYTE   W06
        BYTE                   En1   v055
        BYTE           N05     Ds3   v064
        BYTE   W06
        BYTE                   Cs3
        BYTE   W12
        BYTE                   En1   v055
        BYTE           N11     An2   v064
        BYTE   W06
        BYTE           N05     En1   v075
        BYTE   W06
        BYTE           N11     Fn3   v064
        BYTE   W06
        BYTE           N05     En1   v055
        BYTE   W06
        BYTE                   En1   v075
        BYTE           N11     Fs3   v064
        BYTE   W06
        BYTE           N05     En1   v055
        BYTE   W06
        BYTE           N11     Fn3   v064
        BYTE   W12
        BYTE           N05     En1   v075
        BYTE           N11     Ds3   v064
        BYTE   W06
        BYTE           N05     En1   v055
        BYTE   W06
// 052   ----------------------------------------
FNO_9_52:
        BYTE   W12
        BYTE           N11     En1   v100
        BYTE   W12
        BYTE                   En1   v090
        BYTE   W24
        BYTE                   En1
        BYTE   W12
        BYTE                   En1   v100
        BYTE   W24
        BYTE                   En1
        BYTE   W12
        BYTE   PEND
// 053   ----------------------------------------
        BYTE   PATT
         POIN2  FNO_9_52
// 054   ----------------------------------------
        BYTE   PATT
         POIN2  FNO_9_52
// 055   ----------------------------------------
        BYTE   PATT
         POIN2  FNO_9_52
// 056   ----------------------------------------
FNO_9_56:
        BYTE   W12
        BYTE           N11     En1   v050
        BYTE   W12
        BYTE                   En1
        BYTE   W24
        BYTE                   En1
        BYTE   W12
        BYTE                   En1
        BYTE   W24
        BYTE                   En1
        BYTE   W12
        BYTE   PEND
// 057   ----------------------------------------
        BYTE   PATT
         POIN2  FNO_9_56
// 058   ----------------------------------------
        BYTE   PATT
         POIN2  FNO_9_56
// 059   ----------------------------------------
        BYTE   W96
// 060   ----------------------------------------
        BYTE   W23
        BYTE   GoTo
         POIN2  FNO_9_LOOP
        BYTE   FINE

//***************** Track 10 (Midi-Chn.15) *****************//

FNO_10:
        BYTE   KEYSH   FNO_key+0
// 000   ----------------------------------------
FNO_10_LOOP:
        BYTE           PAN     c_v-16
        BYTE           VOL     38
        BYTE           VOICE   121
        BYTE           BENDR   12
        BYTE   W96
// 001   ----------------------------------------
        BYTE   W96
// 002   ----------------------------------------
        BYTE   W96
// 003   ----------------------------------------
FNO_10_3:
        BYTE           N23     Cn1   v001
        BYTE   W24
        BYTE                   Cn1
        BYTE   W72
        BYTE   PEND
// 004   ----------------------------------------
FNO_10_4:
        BYTE           N23     Cn1   v080
        BYTE   W24
        BYTE                   Cn1
        BYTE   W24
        BYTE                   Cn1
        BYTE   W24
        BYTE                   Cn1
        BYTE   W24
        BYTE   PEND
// 005   ----------------------------------------
        BYTE   PATT
         POIN2  FNO_10_4
// 006   ----------------------------------------
        BYTE   PATT
         POIN2  FNO_10_4
// 007   ----------------------------------------
        BYTE   PATT
         POIN2  FNO_10_4
// 008   ----------------------------------------
FNO_10_8:
        BYTE           N11     Cn1   v080
        BYTE   W12
        BYTE                   Cn1
        BYTE   W30
        BYTE           N05
        BYTE   W18
        BYTE           N11
        BYTE   W36
        BYTE   PEND
// 009   ----------------------------------------
        BYTE   PATT
         POIN2  FNO_10_8
// 010   ----------------------------------------
        BYTE   PATT
         POIN2  FNO_10_8
// 011   ----------------------------------------
        BYTE   PATT
         POIN2  FNO_10_8
// 012   ----------------------------------------
        BYTE   PATT
         POIN2  FNO_10_8
// 013   ----------------------------------------
        BYTE   PATT
         POIN2  FNO_10_8
// 014   ----------------------------------------
        BYTE   PATT
         POIN2  FNO_10_8
// 015   ----------------------------------------
FNO_10_15:
        BYTE           N11     Cn1   v080
        BYTE   W12
        BYTE                   Cn1
        BYTE   W24
        BYTE                   Gs3   v096
        BYTE   W06
        BYTE           N05     Cn1   v080
        BYTE   W06
        BYTE           N11     Fn4   v096
        BYTE   W12
        BYTE                   Cn1   v080
        BYTE           N11     Fs4   v096
        BYTE   W12
        BYTE                   Ds4
        BYTE   W12
        BYTE           N05     Cs4
        BYTE   W12
        BYTE   PEND
// 016   ----------------------------------------
FNO_10_16:
        BYTE           N11     Cn1   v080
        BYTE           N44     Cs4   v096   gtp3
        BYTE   W12
        BYTE           N11     Cn1   v080
        BYTE   W30
        BYTE           N05
        BYTE   W18
        BYTE           N11
        BYTE   W36
        BYTE   PEND
// 017   ----------------------------------------
        BYTE   PATT
         POIN2  FNO_10_15
// 018   ----------------------------------------
        BYTE   PATT
         POIN2  FNO_10_16
// 019   ----------------------------------------
        BYTE           N11     Cn1   v080
        BYTE   W12
        BYTE                   Cn1
        BYTE   W24
        BYTE                   Fn3   v096
        BYTE           N11     Gs3
        BYTE   W06
        BYTE           N05     Cn1   v080
        BYTE   W06
        BYTE           N11     Cs4   v096
        BYTE           N11     Fn4
        BYTE   W12
        BYTE                   Ds4
        BYTE           N11     Fs4
        BYTE   W12
        BYTE           N23     Cn4
        BYTE           N23     Ds4
        BYTE   W24
// 020   ----------------------------------------
        BYTE   PATT
         POIN2  FNO_10_8
// 021   ----------------------------------------
        BYTE   PATT
         POIN2  FNO_10_8
// 022   ----------------------------------------
        BYTE   PATT
         POIN2  FNO_10_8
// 023   ----------------------------------------
        BYTE   PATT
         POIN2  FNO_10_8
// 024   ----------------------------------------
        BYTE   PATT
         POIN2  FNO_10_8
// 025   ----------------------------------------
        BYTE   PATT
         POIN2  FNO_10_8
// 026   ----------------------------------------
        BYTE   PATT
         POIN2  FNO_10_8
// 027   ----------------------------------------
        BYTE   PATT
         POIN2  FNO_10_8
// 028   ----------------------------------------
        BYTE           N11     Cn1   v080
        BYTE           N92     Cs5   v064   gtp3
        BYTE   W12
        BYTE           N11     Cn1   v080
        BYTE   W30
        BYTE           N05
        BYTE   W18
        BYTE           N11
        BYTE   W36
// 029   ----------------------------------------
        BYTE                   Cn1
        BYTE           N92     Cn5   v064   gtp3
        BYTE   W12
        BYTE           N11     Cn1   v080
        BYTE   W30
        BYTE           N05
        BYTE   W18
        BYTE           N11
        BYTE   W36
// 030   ----------------------------------------
        BYTE                   Cn1
        BYTE           N92     As4   v064   gtp3
        BYTE   W12
        BYTE           N11     Cn1   v080
        BYTE   W30
        BYTE           N05
        BYTE   W18
        BYTE           N11
        BYTE   W36
// 031   ----------------------------------------
        BYTE                   Cn1
        BYTE           N92     Gs4   v064   gtp3
        BYTE   W12
        BYTE           N11     Cn1   v080
        BYTE   W30
        BYTE           N05
        BYTE   W18
        BYTE           N11
        BYTE   W36
// 032   ----------------------------------------
FNO_10_32:
        BYTE           N11     Cn1   v080
        BYTE           N92     Fn4   v064   gtp3
        BYTE                   As4
        BYTE   W12
        BYTE           N11     Cn1   v080
        BYTE   W30
        BYTE           N05
        BYTE   W18
        BYTE           N11
        BYTE   W36
        BYTE   PEND
// 033   ----------------------------------------
        BYTE                   Cn1
        BYTE           N92     Gs4   v064   gtp3
        BYTE                   Cn5
        BYTE   W12
        BYTE           N11     Cn1   v080
        BYTE   W30
        BYTE           N05
        BYTE   W18
        BYTE           N11
        BYTE   W36
// 034   ----------------------------------------
        BYTE   PATT
         POIN2  FNO_10_32
// 035   ----------------------------------------
        BYTE   PATT
         POIN2  FNO_10_8
// 036   ----------------------------------------
FNO_10_36:
        BYTE           N11     Cn1   v080
        BYTE           N92     Cs4   v064   gtp3
        BYTE   W12
        BYTE           N11     Cn1   v080
        BYTE   W30
        BYTE           N05
        BYTE   W18
        BYTE           N11
        BYTE   W36
        BYTE   PEND
// 037   ----------------------------------------
FNO_10_37:
        BYTE           N11     Cn1   v080
        BYTE           N92     Cn4   v064   gtp3
        BYTE   W12
        BYTE           N11     Cn1   v080
        BYTE   W30
        BYTE           N05
        BYTE   W18
        BYTE           N11
        BYTE   W36
        BYTE   PEND
// 038   ----------------------------------------
FNO_10_38:
        BYTE           N11     Cn1   v080
        BYTE           N92     Cs4   v064   gtp3
        BYTE                   Fn4
        BYTE   W12
        BYTE           N11     Cn1   v080
        BYTE   W30
        BYTE           N05
        BYTE   W18
        BYTE           N11
        BYTE   W36
        BYTE   PEND
// 039   ----------------------------------------
FNO_10_39:
        BYTE           N11     Cn1   v080
        BYTE           N44     Cs4   v064   gtp3
        BYTE   W12
        BYTE           N11     Cn1   v080
        BYTE   W30
        BYTE           N05
        BYTE   W06
        BYTE           N44     Cn4   v064   gtp3
        BYTE   W12
        BYTE           N11     Cn1   v080
        BYTE   W36
        BYTE   PEND
// 040   ----------------------------------------
        BYTE   PATT
         POIN2  FNO_10_38
// 041   ----------------------------------------
        BYTE   PATT
         POIN2  FNO_10_37
// 042   ----------------------------------------
        BYTE   PATT
         POIN2  FNO_10_36
// 043   ----------------------------------------
FNO_10_43:
        BYTE           N11     Cn1   v080
        BYTE           N44     Gs3   v064   gtp3
        BYTE                   Cs4
        BYTE   W12
        BYTE           N11     Cn1   v080
        BYTE   W30
        BYTE           N05
        BYTE   W06
        BYTE           N44     An3   v064   gtp3
        BYTE                   Cn4
        BYTE   W12
        BYTE           N11     Cn1   v080
        BYTE   W36
        BYTE   PEND
// 044   ----------------------------------------
        BYTE   PATT
         POIN2  FNO_10_36
// 045   ----------------------------------------
        BYTE   PATT
         POIN2  FNO_10_37
// 046   ----------------------------------------
        BYTE   PATT
         POIN2  FNO_10_38
// 047   ----------------------------------------
        BYTE   PATT
         POIN2  FNO_10_39
// 048   ----------------------------------------
        BYTE   PATT
         POIN2  FNO_10_38
// 049   ----------------------------------------
        BYTE   PATT
         POIN2  FNO_10_37
// 050   ----------------------------------------
        BYTE   PATT
         POIN2  FNO_10_36
// 051   ----------------------------------------
        BYTE   PATT
         POIN2  FNO_10_43
// 052   ----------------------------------------
FNO_10_52:
        BYTE           N32     Cn1   v080   gtp3
        BYTE                   As3   v064
        BYTE           N32     Cs4   v064   gtp3
        BYTE   W36
        BYTE                   Cn1   v080
        BYTE           N56     Gs3   v064   gtp3
        BYTE                   Cn4
        BYTE   W36
        BYTE           N23     Cn1   v080
        BYTE   W24
        BYTE   PEND
// 053   ----------------------------------------
FNO_10_53:
        BYTE           N32     Cn1   v080   gtp3
        BYTE                   Fs3   v064
        BYTE           N32     As3   v064   gtp3
        BYTE   W36
        BYTE                   Cn1   v080
        BYTE           N56     Gs3   v064   gtp3
        BYTE                   Cn4
        BYTE   W36
        BYTE           N23     Cn1   v080
        BYTE   W24
        BYTE   PEND
// 054   ----------------------------------------
        BYTE   PATT
         POIN2  FNO_10_52
// 055   ----------------------------------------
        BYTE   PATT
         POIN2  FNO_10_53
// 056   ----------------------------------------
        BYTE   PATT
         POIN2  FNO_10_52
// 057   ----------------------------------------
        BYTE   PATT
         POIN2  FNO_10_53
// 058   ----------------------------------------
        BYTE   PATT
         POIN2  FNO_10_52
// 059   ----------------------------------------
        BYTE   W96
// 060   ----------------------------------------
        BYTE   W23
        BYTE   GoTo
         POIN2  FNO_10_LOOP
        BYTE   FINE

//***************** Track 11 (Midi-Chn.0) ******************//

FNO_11:
        BYTE   KEYSH   FNO_key+0
// 000   ----------------------------------------
FNO_11_LOOP:
        BYTE           VOICE   1
        BYTE           VOL     51
        BYTE           BENDR   12
        BYTE   W96
// 001   ----------------------------------------
        BYTE   W96
// 002   ----------------------------------------
        BYTE   W96
// 003   ----------------------------------------
        BYTE   W96
// 004   ----------------------------------------
        BYTE   W96
// 005   ----------------------------------------
        BYTE   W96
// 006   ----------------------------------------
        BYTE   W96
// 007   ----------------------------------------
        BYTE   W96
// 008   ----------------------------------------
        BYTE   W96
// 009   ----------------------------------------
        BYTE   W96
// 010   ----------------------------------------
        BYTE   W96
// 011   ----------------------------------------
        BYTE   W96
// 012   ----------------------------------------
        BYTE   W96
// 013   ----------------------------------------
        BYTE   W96
// 014   ----------------------------------------
        BYTE   W96
// 015   ----------------------------------------
FNO_11_15:
        BYTE   W48
        BYTE           N05     Cs3   v080
        BYTE   W12
        BYTE                   Ds3
        BYTE   W12
        BYTE           N11     Cn3
        BYTE   W12
        BYTE           N05     As2
        BYTE   W12
        BYTE   PEND
// 016   ----------------------------------------
        BYTE   W96
// 017   ----------------------------------------
        BYTE   PATT
         POIN2  FNO_11_15
// 018   ----------------------------------------
        BYTE   W96
// 019   ----------------------------------------
        BYTE   W96
// 020   ----------------------------------------
FNO_11_20:
        BYTE   W12
        BYTE           N05     Cs3   v090
        BYTE   W12
        BYTE           N02
        BYTE   W06
        BYTE                   Cs3
        BYTE   W12
        BYTE           N17     Cs3   v085
        BYTE   W18
        BYTE           N11     Ds3   v080
        BYTE   W12
        BYTE                   Cn3
        BYTE   W12
        BYTE           N05     Cs3
        BYTE   W12
        BYTE   PEND
// 021   ----------------------------------------
FNO_11_21:
        BYTE   W12
        BYTE           N05     Cs3   v090
        BYTE   W12
        BYTE           N02
        BYTE   W06
        BYTE                   Cs3
        BYTE   W12
        BYTE           N17     Cs3   v085
        BYTE   W18
        BYTE           N11     Ds3   v080
        BYTE   W12
        BYTE           N23     Fn3
        BYTE   W24
        BYTE   PEND
// 022   ----------------------------------------
        BYTE   PATT
         POIN2  FNO_11_20
// 023   ----------------------------------------
        BYTE   W12
        BYTE           N05     Cs3   v090
        BYTE   W12
        BYTE           N02     Ds3
        BYTE   W06
        BYTE                   Fn3
        BYTE   W12
        BYTE           N11     Gs3   v080
        BYTE   W18
        BYTE                   As3
        BYTE   W12
        BYTE                   Fn3
        BYTE   W12
        BYTE                   Fs3
        BYTE   W12
// 024   ----------------------------------------
        BYTE           N08     Gs3
        BYTE   W18
        BYTE                   As3
        BYTE   W18
        BYTE           N23     Fn3
        BYTE   W48
        BYTE           N05
        BYTE   W06
        BYTE                   Fs3
        BYTE   W06
// 025   ----------------------------------------
        BYTE           N17     Gs3
        BYTE   W18
        BYTE                   As3
        BYTE   W18
        BYTE                   Fn3
        BYTE   W18
        BYTE                   Cs4
        BYTE   W18
        BYTE           N11     Cn4
        BYTE   W12
        BYTE                   Gs3
        BYTE   W12
// 026   ----------------------------------------
        BYTE           N92     Fn3   v080   gtp3
        BYTE   W96
// 027   ----------------------------------------
        BYTE   W96
// 028   ----------------------------------------
        BYTE   PATT
         POIN2  FNO_11_20
// 029   ----------------------------------------
        BYTE   PATT
         POIN2  FNO_11_21
// 030   ----------------------------------------
        BYTE   PATT
         POIN2  FNO_11_20
// 031   ----------------------------------------
        BYTE   W12
        BYTE           N05     Cs3   v090
        BYTE   W12
        BYTE           N02     Ds3
        BYTE   W06
        BYTE                   Fn3
        BYTE   W12
        BYTE           N11     Gs3   v080
        BYTE   W18
        BYTE                   As3
        BYTE   W12
        BYTE                   Cn4
        BYTE   W12
        BYTE                   Cs4
        BYTE   W12
// 032   ----------------------------------------
        BYTE           N08     Ds4
        BYTE   W18
        BYTE                   Fn4
        BYTE   W18
        BYTE           N23     As3
        BYTE   W48
        BYTE           N05     Cn4
        BYTE   W06
        BYTE                   Cs4
        BYTE   W06
// 033   ----------------------------------------
        BYTE           N17     Ds4
        BYTE   W18
        BYTE                   Fn4
        BYTE   W18
        BYTE                   Gs4
        BYTE   W18
        BYTE                   Fn4
        BYTE   W18
        BYTE           N11     Ds4
        BYTE   W12
        BYTE                   Fn4
        BYTE   W12
// 034   ----------------------------------------
        BYTE           N92     As3   v080   gtp3
        BYTE   W96
// 035   ----------------------------------------
        BYTE   W96
// 036   ----------------------------------------
        BYTE   W96
// 037   ----------------------------------------
        BYTE   W96
// 038   ----------------------------------------
        BYTE   W96
// 039   ----------------------------------------
        BYTE   W96
// 040   ----------------------------------------
        BYTE   W96
// 041   ----------------------------------------
        BYTE   W96
// 042   ----------------------------------------
        BYTE   W96
// 043   ----------------------------------------
        BYTE   W96
// 044   ----------------------------------------
        BYTE   W96
// 045   ----------------------------------------
        BYTE   W96
// 046   ----------------------------------------
        BYTE   W96
// 047   ----------------------------------------
        BYTE   W96
// 048   ----------------------------------------
        BYTE   W96
// 049   ----------------------------------------
        BYTE   W96
// 050   ----------------------------------------
        BYTE   W96
// 051   ----------------------------------------
        BYTE   W96
// 052   ----------------------------------------
        BYTE   W96
// 053   ----------------------------------------
        BYTE   W96
// 054   ----------------------------------------
        BYTE   W96
// 055   ----------------------------------------
        BYTE   W96
// 056   ----------------------------------------
        BYTE   W96
// 057   ----------------------------------------
        BYTE   W96
// 058   ----------------------------------------
        BYTE   W96
// 059   ----------------------------------------
        BYTE   W96
// 060   ----------------------------------------
        BYTE   W23
        BYTE   GoTo
         POIN2  FNO_11_LOOP
        BYTE   FINE

//***************** Track 12 (Midi-Chn.14) *****************//

FNO_12:
        BYTE   KEYSH   FNO_key+0
// 000   ----------------------------------------
FNO_12_LOOP:
        BYTE           PAN     c_v+15
        BYTE           VOL     38
        BYTE           VOICE   121
        BYTE   W96
// 001   ----------------------------------------
        BYTE   W96
// 002   ----------------------------------------
        BYTE   W96
// 003   ----------------------------------------
        BYTE   PATT
         POIN2  FNO_10_3
// 004   ----------------------------------------
        BYTE   PATT
         POIN2  FNO_10_4
// 005   ----------------------------------------
        BYTE   PATT
         POIN2  FNO_10_4
// 006   ----------------------------------------
        BYTE   PATT
         POIN2  FNO_10_4
// 007   ----------------------------------------
        BYTE   PATT
         POIN2  FNO_10_4
// 008   ----------------------------------------
        BYTE           N05     Cs2   v080
        BYTE           N11     Cn1
        BYTE   W06
        BYTE           N05     Fs1   v090
        BYTE   W06
        BYTE                   Fs1
        BYTE           N11     Cn1   v080
        BYTE   W06
        BYTE           N05     Fs1   v090
        BYTE   W06
        BYTE           N11     Dn1   v110
        BYTE   W12
        BYTE           N05     Fs1   v090
        BYTE   W06
        BYTE                   Fs1
        BYTE           N05     Cn1   v080
        BYTE   W12
        BYTE                   Fs1   v090
        BYTE   W06
        BYTE                   Fs1
        BYTE           N11     Cn1   v080
        BYTE   W06
        BYTE           N05     Fs1   v090
        BYTE   W06
        BYTE           N11     Dn1   v110
        BYTE   W12
        BYTE           N05     Fs1   v090
        BYTE   W06
        BYTE                   Fs1
        BYTE   W06
// 009   ----------------------------------------
FNO_12_9:
        BYTE           N05     Fs1   v090
        BYTE           N11     Cn1   v080
        BYTE   W06
        BYTE           N05     Fs1   v090
        BYTE   W06
        BYTE                   Fs1
        BYTE           N11     Cn1   v080
        BYTE   W06
        BYTE           N05     Fs1   v090
        BYTE   W06
        BYTE           N11     Dn1   v110
        BYTE   W12
        BYTE           N05     Fs1   v090
        BYTE   W06
        BYTE                   Fs1
        BYTE           N05     Cn1   v080
        BYTE   W12
        BYTE                   Fs1   v090
        BYTE   W06
        BYTE                   Fs1
        BYTE           N11     Cn1   v080
        BYTE   W06
        BYTE           N05     Fs1   v090
        BYTE   W06
        BYTE           N11     Dn1   v110
        BYTE   W12
        BYTE           N05     Fs1   v090
        BYTE   W06
        BYTE                   Fs1
        BYTE   W06
        BYTE   PEND
// 010   ----------------------------------------
        BYTE   PATT
         POIN2  FNO_12_9
// 011   ----------------------------------------
        BYTE   PATT
         POIN2  FNO_12_9
// 012   ----------------------------------------
FNO_12_12:
        BYTE           N05     Cs2   v127
        BYTE           N11     Cn1   v080
        BYTE   W06
        BYTE           N05     Fs1   v090
        BYTE   W06
        BYTE                   Fs1
        BYTE           N11     Cn1   v080
        BYTE   W06
        BYTE           N05     Fs1   v090
        BYTE   W06
        BYTE           N11     Dn1   v110
        BYTE   W12
        BYTE           N05     Fs1   v090
        BYTE   W06
        BYTE                   Fs1
        BYTE           N05     Cn1   v080
        BYTE   W12
        BYTE                   Fs1   v090
        BYTE   W06
        BYTE                   Fs1
        BYTE           N11     Cn1   v080
        BYTE   W06
        BYTE           N05     Fs1   v090
        BYTE   W06
        BYTE           N11     Dn1   v110
        BYTE   W12
        BYTE           N05     Fs1   v090
        BYTE   W06
        BYTE                   Fs1
        BYTE   W06
        BYTE   PEND
// 013   ----------------------------------------
        BYTE   PATT
         POIN2  FNO_12_9
// 014   ----------------------------------------
        BYTE   PATT
         POIN2  FNO_12_9
// 015   ----------------------------------------
        BYTE   PATT
         POIN2  FNO_12_9
// 016   ----------------------------------------
        BYTE   PATT
         POIN2  FNO_12_9
// 017   ----------------------------------------
        BYTE   PATT
         POIN2  FNO_12_9
// 018   ----------------------------------------
        BYTE   PATT
         POIN2  FNO_12_9
// 019   ----------------------------------------
        BYTE           N05     Fs1   v090
        BYTE           N11     Cn1   v080
        BYTE   W06
        BYTE           N05     Fs1   v090
        BYTE   W06
        BYTE                   Fs1
        BYTE           N11     Cn1   v080
        BYTE   W06
        BYTE           N05     Fs1   v090
        BYTE   W06
        BYTE           N11     Dn1   v110
        BYTE   W12
        BYTE           N05     Fs1   v090
        BYTE   W06
        BYTE                   Fs1
        BYTE           N05     Cn1   v080
        BYTE   W54
// 020   ----------------------------------------
        BYTE   PATT
         POIN2  FNO_12_12
// 021   ----------------------------------------
        BYTE   PATT
         POIN2  FNO_12_9
// 022   ----------------------------------------
        BYTE   PATT
         POIN2  FNO_12_9
// 023   ----------------------------------------
        BYTE   PATT
         POIN2  FNO_12_9
// 024   ----------------------------------------
        BYTE   PATT
         POIN2  FNO_12_9
// 025   ----------------------------------------
        BYTE   PATT
         POIN2  FNO_12_9
// 026   ----------------------------------------
        BYTE   PATT
         POIN2  FNO_12_9
// 027   ----------------------------------------
        BYTE   PATT
         POIN2  FNO_12_9
// 028   ----------------------------------------
        BYTE   PATT
         POIN2  FNO_12_12
// 029   ----------------------------------------
        BYTE   PATT
         POIN2  FNO_12_9
// 030   ----------------------------------------
        BYTE   PATT
         POIN2  FNO_12_9
// 031   ----------------------------------------
        BYTE   PATT
         POIN2  FNO_12_9
// 032   ----------------------------------------
        BYTE   PATT
         POIN2  FNO_12_9
// 033   ----------------------------------------
        BYTE   PATT
         POIN2  FNO_12_9
// 034   ----------------------------------------
        BYTE   PATT
         POIN2  FNO_12_9
// 035   ----------------------------------------
        BYTE   PATT
         POIN2  FNO_12_9
// 036   ----------------------------------------
        BYTE   PATT
         POIN2  FNO_12_9
// 037   ----------------------------------------
        BYTE   PATT
         POIN2  FNO_12_9
// 038   ----------------------------------------
        BYTE   PATT
         POIN2  FNO_12_9
// 039   ----------------------------------------
        BYTE   PATT
         POIN2  FNO_12_9
// 040   ----------------------------------------
        BYTE   PATT
         POIN2  FNO_12_9
// 041   ----------------------------------------
        BYTE   PATT
         POIN2  FNO_12_9
// 042   ----------------------------------------
        BYTE   PATT
         POIN2  FNO_12_9
// 043   ----------------------------------------
        BYTE   PATT
         POIN2  FNO_12_9
// 044   ----------------------------------------
        BYTE   PATT
         POIN2  FNO_12_9
// 045   ----------------------------------------
        BYTE   PATT
         POIN2  FNO_12_9
// 046   ----------------------------------------
        BYTE   PATT
         POIN2  FNO_12_9
// 047   ----------------------------------------
        BYTE   PATT
         POIN2  FNO_12_9
// 048   ----------------------------------------
        BYTE   PATT
         POIN2  FNO_12_9
// 049   ----------------------------------------
        BYTE   PATT
         POIN2  FNO_12_9
// 050   ----------------------------------------
        BYTE   PATT
         POIN2  FNO_12_9
// 051   ----------------------------------------
        BYTE   PATT
         POIN2  FNO_12_9
// 052   ----------------------------------------
FNO_12_52:
        BYTE           N11     Fs1   v080
        BYTE           N11     Cs2   v127
        BYTE           N32     Cn1   v080   gtp3
        BYTE   W12
        BYTE           N11     Dn1   v090
        BYTE   W12
        BYTE                   Dn1
        BYTE           N11     Fs1   v100
        BYTE   W12
        BYTE                   Cs2   v127
        BYTE           N32     Cn1   v080   gtp3
        BYTE   W12
        BYTE           N11     Dn1   v090
        BYTE           N11     Fs1   v100
        BYTE   W12
        BYTE                   Dn1   v090
        BYTE   W12
        BYTE                   Fs1   v080
        BYTE           N23     Cn1
        BYTE   W12
        BYTE           N11     Dn1   v090
        BYTE   W12
        BYTE   PEND
// 053   ----------------------------------------
        BYTE   PATT
         POIN2  FNO_12_52
// 054   ----------------------------------------
        BYTE   PATT
         POIN2  FNO_12_52
// 055   ----------------------------------------
        BYTE   PATT
         POIN2  FNO_12_52
// 056   ----------------------------------------
FNO_12_56:
        BYTE           N11     Dn1   v110
        BYTE           N11     Fs1   v080
        BYTE           N11     Cs2   v127
        BYTE           N32     Cn1   v080   gtp3
        BYTE   W12
        BYTE           N05     Dn1   v110
        BYTE   W06
        BYTE                   Dn1
        BYTE   W06
        BYTE           N11
        BYTE           N11     Fs1   v100
        BYTE   W12
        BYTE                   Dn1   v110
        BYTE           N11     Cs2   v127
        BYTE           N32     Cn1   v080   gtp3
        BYTE   W12
        BYTE           N05     Dn1   v110
        BYTE           N05     Fs1   v100
        BYTE   W06
        BYTE                   Dn1   v110
        BYTE   W06
        BYTE           N11
        BYTE   W12
        BYTE                   Dn1
        BYTE           N11     Fs1   v080
        BYTE           N23     Cn1
        BYTE   W12
        BYTE           N11     Dn1   v110
        BYTE   W12
        BYTE   PEND
// 057   ----------------------------------------
        BYTE   PATT
         POIN2  FNO_12_56
// 058   ----------------------------------------
        BYTE   PATT
         POIN2  FNO_12_56
// 059   ----------------------------------------
        BYTE   W96
// 060   ----------------------------------------
        BYTE   W23
        BYTE   GoTo
         POIN2  FNO_12_LOOP
        BYTE   FINE


//********************** End of Song ***********************//

        ALIGN 4
FNO:
        BYTE   13                      // Num Tracks
        BYTE   0                       // Unknown
        BYTE   FNO_pri           // Priority
        BYTE   FNO_rev           // Reverb

        POIN2   FNO_grp          

        POIN2   FNO_0
        POIN2   FNO_1
        POIN2   FNO_2
        POIN2   FNO_3
        POIN2   FNO_4
        POIN2   FNO_5
        POIN2   FNO_6
        POIN2   FNO_7
        POIN2   FNO_8
        POIN2   FNO_9
        POIN2   FNO_10
        POIN2   FNO_11
        POIN2   FNO_12

        
